<svg width="141" height="18" viewBox="0 0 141 18" fill="none" xmlns="http://www.w3.org/2000/svg">
<g clip-path="url(#clip0_1_492)">
<path fill-rule="evenodd" clip-rule="evenodd" d="M132.363 0.82373H129.406V1.78584H132.363C136.161 1.78584 139.251 4.87614 139.251 8.67371C139.251 12.4718 136.161 15.5621 132.363 15.5621H129.406V16.5242H132.363C136.691 16.5242 140.213 13.0022 140.213 8.67321C140.213 4.34521 136.691 0.82373 132.363 0.82373Z" fill="white"/>
<path d="M128.22 0.852051H127.313V16.4977H128.22V0.852051Z" fill="white"/>
<path d="M108.214 11.2439H101.952V12.1517H108.214V11.2439Z" fill="white"/>
<path fill-rule="evenodd" clip-rule="evenodd" d="M105.559 0.78125L105.558 0.784213H104.572L104.571 0.782238L104.57 0.784213L97.9592 16.2091L98.7929 16.5666L105.066 1.93104L111.373 16.5666L112.207 16.2076L105.56 0.784213L105.559 0.78125Z" fill="white"/>
<path d="M83.012 0.849365H82.1047V16.4984H83.012V0.849365Z" fill="white"/>
<path fill-rule="evenodd" clip-rule="evenodd" d="M62.2614 10.0661L66.1084 16.5806L66.8808 16.1119L63.0339 9.59741L62.2614 10.0661Z" fill="white"/>
<path fill-rule="evenodd" clip-rule="evenodd" d="M65.1428 7.83475C65.5844 7.53101 65.9711 7.11712 66.2467 6.62027C66.5499 6.1239 66.6877 5.46159 66.6877 4.71679C66.6877 3.91668 66.5223 3.2272 66.219 2.70269C65.9153 2.20583 65.5295 1.79244 65.0327 1.48869C64.5635 1.18495 64.0389 0.991832 63.432 0.881693C62.8531 0.771061 62.2461 0.743896 61.6939 0.743896H57.0311V16.4157H57.9418V8.745H61.5285L62.0248 8.71735C62.5494 8.71735 63.1015 8.63437 63.6256 8.52423C64.1772 8.38594 64.6741 8.13801 65.1428 7.83475ZM61.6663 7.88958H57.9418V1.59883H61.4183C61.9977 1.59883 62.5494 1.62698 63.0739 1.73663C63.5979 1.8196 64.0671 1.98506 64.4805 2.23349C64.8672 2.45426 65.1705 2.78517 65.4189 3.19905C65.6397 3.58528 65.7775 4.10979 65.7775 4.71679C65.7775 5.73767 65.4466 6.48296 64.7566 7.03415C64.039 7.58632 63.0186 7.88958 61.6663 7.88958Z" fill="white"/>
<path d="M38.0857 11.2439H31.8231V12.1517H38.0857V11.2439Z" fill="white"/>
<path fill-rule="evenodd" clip-rule="evenodd" d="M35.431 0.78125L35.43 0.784213H34.4437L34.4432 0.782238L34.4423 0.784213L27.8305 16.2091L28.6647 16.5666L34.9381 1.93104L41.2452 16.5666L42.0789 16.2076L35.432 0.784213L35.431 0.78125Z" fill="white"/>
<path fill-rule="evenodd" clip-rule="evenodd" d="M8.24356 1.30346C10.6088 1.30346 12.699 2.48634 13.9915 4.32857L14.679 3.72404C13.221 1.71586 10.8834 0.423828 8.24356 0.423828C3.81579 0.423828 0.213318 4.13644 0.213318 8.67386C0.213318 13.2389 3.81579 16.9244 8.24356 16.9244C10.8834 16.9244 13.221 15.6319 14.679 13.6247L13.9915 13.0187C12.699 14.8609 10.6088 16.0438 8.24356 16.0438C4.31067 16.0438 1.1206 12.7436 1.1206 8.67337C1.1206 4.60416 4.31067 1.30346 8.24356 1.30346Z" fill="white"/>
</g>
<defs>
<clipPath id="clip0_1_492">
<rect width="140" height="17.5" fill="white" transform="translate(0.170013 0.320068)"/>
</clipPath>
</defs>
</svg>
