<svg width="103" height="51" viewBox="0 0 103 51" fill="none" xmlns="http://www.w3.org/2000/svg">
<g clip-path="url(#clip0_1_526)">
<path fill-rule="evenodd" clip-rule="evenodd" d="M56.0716 45.7992H47.2715C47.184 45.8008 47.0971 45.7835 47.0169 45.7482C46.9367 45.713 46.865 45.6607 46.8069 45.5951C46.7489 45.5296 46.7058 45.4522 46.6805 45.3683C46.6552 45.2845 46.6484 45.1961 46.6606 45.1093C46.6606 44.6993 46.8405 44.3884 47.2715 44.3884H58.0626V42.9673H47.2715C46.9742 42.9322 46.6726 42.9648 46.3897 43.0629C46.1068 43.161 45.8499 43.3221 45.6381 43.5339C45.4264 43.7456 45.2653 44.0025 45.1672 44.2855C45.069 44.5684 45.0364 44.8699 45.0716 45.1673C45.0467 45.4264 45.0764 45.6879 45.1587 45.9349C45.2411 46.1818 45.3743 46.4089 45.5497 46.6013C45.7252 46.7936 45.9388 46.9471 46.1772 47.0518C46.4155 47.1565 46.6732 47.2102 46.9335 47.2093H56.0726C56.5236 47.2093 56.6036 47.6093 56.6036 47.9903C56.6036 48.3213 56.4426 48.6413 56.0726 48.6413H45.2866V50.0623H56.3486C56.6208 50.0751 56.8924 50.0282 57.1446 49.9249C57.3968 49.8216 57.6233 49.6644 57.8083 49.4643C57.9933 49.2642 58.1323 49.0261 58.2156 48.7667C58.2989 48.5072 58.3246 48.2327 58.2906 47.9623C58.328 47.6644 58.2958 47.3619 58.1966 47.0785C58.0974 46.7952 57.9339 46.5386 57.7189 46.329C57.5039 46.1195 57.2433 45.9626 56.9575 45.8707C56.6716 45.7788 56.3684 45.7543 56.0716 45.7992Z" fill="white"/>
<path fill-rule="evenodd" clip-rule="evenodd" d="M59.9853 45.0562V48.1001C59.9699 48.3612 60.0098 48.6227 60.1022 48.8674C60.1945 49.1122 60.3374 49.3347 60.5214 49.5206C60.7054 49.7065 60.9264 49.8516 61.1702 49.9464C61.414 50.0413 61.675 50.0838 61.9363 50.0712H72.5883V48.6492H61.9363C61.8901 48.6516 61.844 48.6441 61.8009 48.6272C61.7579 48.6103 61.719 48.5845 61.6868 48.5514C61.6546 48.5182 61.6299 48.4786 61.6143 48.4351C61.5987 48.3916 61.5926 48.3451 61.5963 48.2991V44.8462C61.5963 44.6352 61.6873 44.3951 61.9363 44.3951H72.5883V42.9741H61.9363C60.5563 42.9731 59.9853 43.7112 59.9853 45.0562Z" fill="white"/>
<path fill-rule="evenodd" clip-rule="evenodd" d="M85.3862 45.7341H75.9662V42.9712H74.3342V50.0712H75.9662V47.1581H85.3862V50.0712H87.0571V42.9712H85.3862V45.7341Z" fill="white"/>
<path fill-rule="evenodd" clip-rule="evenodd" d="M102.077 44.3932V42.9712H88.7629V50.0712H102.077V48.6501H90.385V47.1781H102.077V45.7671H90.385V44.3961L102.077 44.3932Z" fill="white"/>
<path fill-rule="evenodd" clip-rule="evenodd" d="M26.4738 42.9712H16.9938C16.7489 42.9498 16.5023 42.9806 16.2703 43.0618C16.0383 43.143 15.8262 43.2727 15.6481 43.4422C15.4701 43.6117 15.3302 43.8172 15.2377 44.045C15.1453 44.2727 15.1023 44.5176 15.1118 44.7632V48.2771C15.1023 48.5228 15.1453 48.7676 15.2377 48.9954C15.3302 49.2232 15.4701 49.4287 15.6481 49.5982C15.8262 49.7677 16.0383 49.8973 16.2703 49.9786C16.5023 50.0598 16.7489 50.0906 16.9938 50.0691H26.4738C26.7186 50.0906 26.9653 50.0598 27.1973 49.9786C27.4293 49.8973 27.6414 49.7677 27.8194 49.5982C27.9974 49.4287 28.1373 49.2232 28.2298 48.9954C28.3223 48.7676 28.3652 48.5228 28.3558 48.2771V44.7632C28.3652 44.5176 28.3223 44.2727 28.2298 44.045C28.1373 43.8172 27.9974 43.6117 27.8194 43.4422C27.6414 43.2727 27.4293 43.143 27.1973 43.0618C26.9653 42.9806 26.7186 42.9498 26.4738 42.9712ZM26.8138 47.8572C26.8138 48.4282 26.4028 48.6482 25.9028 48.6482H17.6738C17.1738 48.6482 16.7527 48.4282 16.7527 47.8572V45.1841C16.7527 44.6141 17.1638 44.3932 17.6738 44.3932H25.9028C26.4138 44.3932 26.8138 44.6141 26.8138 45.1841V47.8572Z" fill="white"/>
<path fill-rule="evenodd" clip-rule="evenodd" d="M11.863 42.9712H0.23999V50.0712H1.862V47.9791H11.422C11.7015 47.9908 11.9802 47.9425 12.2394 47.8374C12.4987 47.7323 12.7324 47.5731 12.9249 47.3701C13.1174 47.1672 13.2643 46.9253 13.3555 46.6609C13.4468 46.3965 13.4804 46.1156 13.454 45.8372V45.0161C13.454 44.0321 12.974 42.9712 11.863 42.9712ZM11.863 45.9431C11.863 46.3931 11.513 46.5541 11.112 46.5541H1.862V44.3911H11.112C11.213 44.3817 11.3148 44.3947 11.4102 44.4291C11.5055 44.4635 11.5922 44.5185 11.6639 44.5902C11.7356 44.6619 11.7906 44.7486 11.825 44.844C11.8594 44.9394 11.8724 45.0411 11.863 45.1421V45.9431Z" fill="white"/>
<path fill-rule="evenodd" clip-rule="evenodd" d="M41.7806 42.9712H30.1086V50.0711H31.7307V47.9791H40.0197C41.2507 47.9791 41.7116 49.0001 41.7816 50.0711H43.3737C43.4037 49.5816 43.3004 49.093 43.0748 48.6576C42.8493 48.2221 42.5098 47.856 42.0927 47.5981C42.7737 47.4181 43.3737 47.0071 43.3737 46.2371V44.3951C43.3657 44.1959 43.3178 44.0004 43.2328 43.8202C43.1478 43.6399 43.0275 43.4784 42.8788 43.3455C42.7302 43.2127 42.5564 43.1112 42.3677 43.0468C42.1791 42.9825 41.9794 42.9568 41.7806 42.9712ZM41.7806 46.0141C41.7806 46.2841 41.7006 46.5551 41.3806 46.5551H31.7307V44.3921H41.1406C41.6116 44.3921 41.7816 44.5921 41.7816 45.0531L41.7806 46.0141Z" fill="white"/>
<path fill-rule="evenodd" clip-rule="evenodd" d="M55.2446 31.6048C55.2526 31.6668 55.2136 31.6668 55.1676 31.6278C54.8556 31.4152 54.4908 31.2934 54.1137 31.2758C53.2767 31.3221 52.4651 31.5791 51.7539 32.0228C51.7469 32.2618 51.6338 32.3098 51.5168 32.3098C51.4866 32.3098 51.4568 32.3034 51.4292 32.291C51.4016 32.2786 51.377 32.2604 51.3569 32.2378C51.3219 32.2647 51.29 32.2587 51.242 32.2587C51.2153 32.2579 51.189 32.2516 51.1647 32.2404C51.1404 32.2292 51.1186 32.2133 51.1006 32.1935C51.0826 32.1737 51.0689 32.1506 51.06 32.1254C51.0511 32.1002 51.0474 32.0735 51.049 32.0468C51.0451 32.0085 51.0536 31.9699 51.0734 31.9369C51.0932 31.9039 51.1233 31.8782 51.159 31.8637C51.1538 31.8469 51.1511 31.8294 51.1509 31.8118C51.1512 31.7744 51.1614 31.7377 51.1803 31.7055C51.1993 31.6732 51.2263 31.6465 51.2588 31.6281C51.2913 31.6096 51.3282 31.6001 51.3656 31.6004C51.403 31.6007 51.4397 31.6108 51.4719 31.6298C51.5122 31.6391 51.5545 31.632 51.5896 31.61C51.6247 31.5881 51.6496 31.5531 51.6589 31.5128C51.6709 31.3858 51.7348 30.4128 52.3238 30.3048C52.3938 30.2898 52.3698 30.3438 52.3388 30.3738C52.1386 30.6631 52.0498 31.0151 52.0888 31.3648C52.1936 31.3121 52.3018 31.2667 52.4128 31.2288C52.4358 31.0518 52.6538 30.2339 53.3008 30.2129C53.3628 30.2129 53.3468 30.2588 53.3008 30.2898C53.0899 30.4975 52.9532 30.7688 52.9118 31.0618C53.0404 31.0177 53.1717 30.9816 53.3048 30.9538C53.3358 30.8378 53.8047 30.2078 54.2757 30.2188C54.3297 30.2188 54.2577 30.3019 54.2827 30.2809C54.0834 30.4277 53.9283 30.6266 53.8347 30.8558C53.9393 30.8441 54.045 30.8441 54.1497 30.8558C54.2226 30.758 54.3208 30.6821 54.4339 30.6363C54.5469 30.5904 54.6702 30.5764 54.7906 30.5958C54.8436 30.5958 54.8306 30.6478 54.7906 30.6648C54.7342 30.6928 54.6842 30.7322 54.6439 30.7806C54.6036 30.829 54.5739 30.8853 54.5566 30.9458C55.0126 31.1658 55.2066 31.3588 55.2446 31.6048ZM56.4446 28.2369C56.5006 28.0009 56.8625 27.8859 56.9445 27.8519C57.0025 27.8259 57.0235 27.7519 56.9445 27.7519C56.7508 27.723 56.5531 27.7362 56.365 27.7908C56.1769 27.8453 56.0027 27.9399 55.8545 28.0679C55.6641 28.0373 55.4714 28.0243 55.2786 28.0289C55.3416 27.7399 55.8096 27.4769 56.0606 27.2649C56.0236 27.2959 56.1286 27.175 56.0496 27.175C55.7716 27.2039 55.5049 27.3006 55.273 27.4567C55.0411 27.6127 54.8511 27.8233 54.7196 28.0699C54.6636 28.0809 54.1036 28.1939 53.9907 28.2279C54.0906 27.5649 54.9166 27.128 54.9836 27.086C55.0506 27.044 55.0736 26.974 54.9836 26.974C54.5911 27.0498 54.224 27.2232 53.9162 27.4784C53.6084 27.7336 53.37 28.0622 53.2228 28.4339C53.0224 28.5028 52.8258 28.5823 52.6338 28.6719C52.6519 28.3934 52.728 28.1218 52.8573 27.8745C52.9866 27.6272 53.1663 27.4096 53.3847 27.2359C53.4287 27.1909 53.4628 27.112 53.3618 27.136C52.4059 27.271 52.0208 28.6649 52.0048 28.8499C51.9888 29.0349 51.7678 29.0409 51.7298 29.0219C51.6827 28.9937 51.6291 28.9786 51.5742 28.978C51.5193 28.9774 51.4652 28.9914 51.4175 29.0186C51.3698 29.0457 51.3303 29.0851 51.3028 29.1326C51.2752 29.1801 51.2607 29.234 51.2609 29.2889C51.2605 29.3146 51.2642 29.3403 51.2719 29.3649C51.22 29.3863 51.1764 29.4237 51.1474 29.4718C51.1184 29.5199 51.1056 29.576 51.1109 29.6318C51.1077 29.671 51.1127 29.7103 51.1253 29.7475C51.1379 29.7847 51.158 29.8189 51.1844 29.848C51.2107 29.8771 51.2426 29.9005 51.2783 29.9169C51.314 29.9332 51.3526 29.942 51.3919 29.9429C51.4638 29.9429 51.5089 29.9509 51.5619 29.9109C51.591 29.944 51.6268 29.9705 51.667 29.9886C51.7072 30.0067 51.7508 30.016 51.7949 30.0159C51.9669 30.0159 52.0539 29.9698 52.0649 29.6208C53.1783 29.0418 54.4032 28.7089 55.6565 28.6449C56.2529 28.7093 56.8121 28.9662 57.2494 29.3768C57.3164 29.4328 57.3725 29.4329 57.3615 29.3439C57.3041 29.1013 57.1914 28.8752 57.0324 28.6832C56.8734 28.4912 56.6722 28.3385 56.4446 28.2369ZM39.4178 11.0086C39.4632 11.0605 39.5191 11.1021 39.5819 11.1306C39.6447 11.1591 39.7129 11.1737 39.7818 11.1736C40.0498 11.1736 40.3618 10.9736 40.3818 10.4256C41.7817 9.47459 43.4052 8.90487 45.0924 8.77267C45.7999 8.80367 46.4783 9.06294 47.0262 9.51165C47.1262 9.59965 47.2193 9.59967 47.2013 9.45868C47.1133 8.8967 46.3573 8.38571 46.0943 8.24571C46.2286 7.91911 46.4395 7.62964 46.7092 7.40175C46.7802 7.33075 46.8322 7.24374 46.7092 7.24374C46.1549 7.31254 45.6499 7.59667 45.3033 8.03472C45.041 8.00219 44.7759 7.99647 44.5124 8.01769C44.5855 7.48748 44.8554 7.00416 45.2684 6.66374C45.3214 6.61174 45.3733 6.52379 45.2513 6.52379C44.2674 6.61179 43.7215 7.89469 43.6515 8.15868C43.5635 8.17568 43.0006 8.26369 42.8256 8.31669C42.8625 7.96338 42.97 7.62107 43.1418 7.31014C43.3135 6.99921 43.5461 6.72603 43.8256 6.50677C43.9305 6.43677 43.9665 6.33075 43.8256 6.33075C42.5257 6.36675 41.9446 8.24672 41.8916 8.6517C41.5434 8.79811 41.2031 8.96233 40.8717 9.14369C40.8397 8.65787 40.9216 8.17125 41.1108 7.72266C41.3 7.27407 41.5913 6.87585 41.9616 6.55974C42.0316 6.48975 42.0846 6.36679 41.9267 6.40179C40.4328 6.61278 40.0458 9.20164 40.0198 9.48663C39.9848 9.75862 39.7388 9.65365 39.6788 9.62365C39.6052 9.57983 39.5213 9.55631 39.4356 9.55547C39.3499 9.55464 39.2655 9.57652 39.191 9.61889C39.1166 9.66126 39.0547 9.72259 39.0116 9.79668C38.9685 9.87076 38.9458 9.95493 38.9459 10.0406C38.9457 10.081 38.9518 10.1211 38.9639 10.1596C38.873 10.1988 38.7949 10.2628 38.7389 10.3444C38.6828 10.4259 38.6509 10.5217 38.6469 10.6206C38.6469 10.7492 38.698 10.8726 38.789 10.9636C38.8799 11.0545 39.0033 11.1056 39.1319 11.1056C39.2355 11.1069 39.3364 11.0727 39.4178 11.0086ZM49.977 0.0710449C54.7017 0.117832 59.4018 0.756069 63.9679 1.97093L62.421 22.3611C62.14 28.1969 56.6555 33.0487 49.977 36.4936C43.2976 33.0487 37.813 28.1939 37.532 22.3611L35.9851 1.97093C40.5499 0.7564 45.2487 0.118165 49.972 0.0710449H49.977ZM37.873 19.3783H44.7044V17.0054C44.3193 16.6998 43.8291 16.5586 43.3405 16.6124C42.2346 16.7624 41.2214 17.3107 40.4908 18.1543C40.4788 18.5223 40.2678 18.6593 40.0908 18.6593C40.0443 18.6593 39.9983 18.6494 39.9559 18.6303C39.9135 18.6111 39.8756 18.5832 39.8448 18.5483C39.7897 18.5911 39.7215 18.6133 39.6518 18.6113C39.5651 18.6113 39.4819 18.5768 39.4206 18.5155C39.3593 18.4542 39.3249 18.371 39.3249 18.2843C39.3275 18.2174 39.349 18.1526 39.3868 18.0974C39.4247 18.0422 39.4774 17.9989 39.5388 17.9723C39.5307 17.9464 39.5267 17.9194 39.5268 17.8923C39.5271 17.8057 39.5616 17.7227 39.6229 17.6614C39.6841 17.6002 39.7672 17.5656 39.8538 17.5654C39.9126 17.5652 39.9703 17.5811 40.0208 17.6113C40.0608 17.6313 40.1918 17.7204 40.2208 17.5364C40.2498 17.3524 40.2138 15.5034 41.1957 15.2254C41.3027 15.2014 41.2667 15.2844 41.2187 15.3324C40.9064 15.8583 40.7587 16.4657 40.7947 17.0764C40.9639 16.9561 41.1414 16.8478 41.3257 16.7523C41.3727 16.5523 41.7127 15.0224 42.5256 15.0064C42.6206 15.0064 42.5966 15.0774 42.5256 15.1244C42.2224 15.4579 42.0455 15.8871 42.0256 16.3374C42.1436 16.3024 42.4406 16.2514 42.4996 16.2374C42.5476 16.0594 42.8996 15.0374 43.5625 14.9754C43.6455 14.9754 43.6095 15.0615 43.5745 15.0965C43.349 15.3912 43.1929 15.733 43.1176 16.0964C43.2769 16.0848 43.4369 16.0918 43.5945 16.1174C43.9058 15.7459 44.2843 15.4365 44.7104 15.2054V13.1225C44.6184 13.0385 44.4735 12.9495 44.0305 12.9475C42.7792 13.0588 41.5842 13.5193 40.5817 14.2765C40.5657 14.7675 40.2818 14.9505 40.0438 14.9505C39.9819 14.9504 39.9208 14.9372 39.8644 14.9116C39.808 14.8861 39.7577 14.8489 39.7168 14.8025C39.643 14.8591 39.5519 14.8888 39.4588 14.8864C39.4015 14.8866 39.3447 14.8754 39.2917 14.8535C39.2387 14.8317 39.1905 14.7996 39.1499 14.7591C39.1093 14.7186 39.0772 14.6705 39.0552 14.6175C39.0332 14.5646 39.0219 14.5078 39.0219 14.4505C39.0256 14.3614 39.0544 14.2751 39.105 14.2017C39.1556 14.1283 39.2259 14.0706 39.3078 14.0355C39.297 14.0008 39.2916 13.9647 39.2919 13.9285C39.2918 13.8514 39.3122 13.7757 39.3509 13.7091C39.3896 13.6425 39.4453 13.5873 39.5122 13.5492C39.5792 13.5111 39.655 13.4914 39.7321 13.4921C39.8091 13.4929 39.8846 13.5141 39.9508 13.5535C40.0038 13.5805 40.2258 13.6755 40.2578 13.4295C40.2818 13.1685 40.6817 10.9836 42.0266 10.7936C42.1686 10.7626 42.1267 10.8726 42.0587 10.9356C41.7384 11.2032 41.48 11.5371 41.3015 11.9144C41.123 12.2916 41.0286 12.7032 41.0248 13.1205C41.2992 12.9688 41.5819 12.8326 41.8717 12.7125C41.9347 12.4435 42.5285 10.8036 43.6115 10.7826C43.7385 10.7826 43.7065 10.8826 43.6115 10.9406C43.3674 11.1174 43.165 11.3454 43.0184 11.6086C42.8717 11.8719 42.7844 12.164 42.7625 12.4645C42.9205 12.4175 43.4096 12.3025 43.4885 12.2875C43.5784 11.9716 43.7537 11.6867 43.9952 11.4642C44.2368 11.2416 44.5352 11.0902 44.8575 11.0266C44.9684 11.0266 44.9204 11.1416 44.8734 11.1886C44.5493 11.4348 44.3312 11.7952 44.2635 12.1965C44.4142 12.1999 44.564 12.2197 44.7104 12.2556V11.6656H49.702V4.74383C45.374 4.78475 41.0704 5.3977 36.9031 6.56676L37.873 19.3783ZM44.7044 15.5014C44.5395 15.6912 44.4062 15.9063 44.3095 16.1384C44.4623 16.2393 44.5973 16.3646 44.7094 16.5094L44.7044 15.5014ZM49.6961 31.0748L42.9805 31.0908C45.0239 32.887 47.2792 34.4266 49.6961 35.6756V31.0748ZM49.6961 25.482C48.8877 25.4573 48.0967 25.2417 47.3877 24.8527C46.6786 24.4638 46.0716 23.9125 45.6163 23.2441L38.1729 23.2521C38.4033 24.6228 38.8963 25.9362 39.6248 27.12H49.6961V25.482ZM49.977 24.926C51.216 24.9119 52.4008 24.4159 53.2801 23.543C54.1595 22.6701 54.6643 21.4891 54.6876 20.2502V12.2346H45.2664V20.2502C45.2894 21.4883 45.7935 22.6688 46.6719 23.5416C47.5503 24.4144 48.7339 24.9109 49.972 24.926H49.977ZM62.0381 19.9002L55.2486 19.9212V20.6022C55.2056 21.3491 55.0015 22.0779 54.6503 22.7385C54.299 23.3991 53.8089 23.9757 53.2137 24.429L53.1348 24.593C52.986 24.922 52.9468 25.2901 53.0228 25.643C53.217 25.5455 53.4174 25.461 53.6228 25.39C53.6648 25.067 54.5316 23.5381 55.7145 23.4991C55.8265 23.4991 55.7985 23.5831 55.7145 23.6401C55.158 23.9562 54.7451 24.4749 54.5616 25.0881C54.7026 25.0461 55.5566 24.9061 55.6266 24.8881C55.7366 24.6063 55.9167 24.3573 56.15 24.1648C56.3833 23.9722 56.6619 23.8426 56.9594 23.7881C57.0594 23.7881 56.9275 23.9391 56.9734 23.9001C56.6746 24.1175 56.4607 24.4322 56.3685 24.79C56.6098 24.7839 56.8511 24.8003 57.0894 24.8391C57.2699 24.6875 57.4816 24.5776 57.7094 24.5169C57.9371 24.4563 58.1754 24.4464 58.4074 24.4881C58.5074 24.4881 58.4804 24.5821 58.4074 24.6151C58.3074 24.6581 57.7924 24.7151 57.7224 25.0081C58.066 25.156 58.3645 25.3919 58.5879 25.6919C58.8114 25.9919 58.9518 26.3454 58.9953 26.717C59.0093 26.83 58.9393 26.83 58.8543 26.759C58.3754 26.1179 57.6723 25.6812 56.8854 25.536C55.2871 25.6424 53.7285 26.0807 52.3089 26.823C52.2949 27.26 52.1859 27.3159 51.9719 27.3159C51.9169 27.3161 51.8624 27.3045 51.8122 27.282C51.762 27.2594 51.7173 27.2263 51.6809 27.185C51.6149 27.235 51.5579 27.2249 51.4689 27.2249C51.4197 27.2243 51.3712 27.2135 51.3263 27.1933C51.2815 27.1731 51.2413 27.144 51.2082 27.1076C51.1751 27.0712 51.1498 27.0284 51.1339 26.9819C51.1181 26.9353 51.1119 26.886 51.1159 26.837C51.109 26.7672 51.1248 26.6971 51.1608 26.637C51.1968 26.5768 51.2512 26.5299 51.3159 26.503C51.3059 26.4706 51.3011 26.4368 51.3019 26.403C51.302 26.3345 51.3203 26.2673 51.3547 26.2082C51.3892 26.1491 51.4387 26.1002 51.4982 26.0664C51.5577 26.0325 51.6252 26.0151 51.6936 26.0157C51.762 26.0163 51.8291 26.0351 51.8879 26.07C51.9245 26.0785 51.9624 26.0796 51.9995 26.0733C52.0365 26.0671 52.0721 26.0536 52.104 26.0336C52.1358 26.0137 52.1634 25.9876 52.1851 25.9569C52.2069 25.9263 52.2225 25.8917 52.2309 25.855C52.2435 25.5838 52.2994 25.3165 52.3968 25.063L52.4118 24.9221C51.7392 25.2573 51.003 25.4451 50.2521 25.473V35.6726C55.1737 33.0727 60.9392 28.7469 61.7822 23.1921L62.0381 19.9002ZM62.364 15.4644L55.2496 15.4844L55.2376 19.3562L62.0601 19.3772L62.364 15.4644ZM62.9541 7.68372L50.255 7.6117V11.5476H55.2467V11.7176H62.646L62.9541 7.68372ZM63.3699 2.46292C54.607 0.0251678 45.345 0.0251678 36.582 2.46292L36.8411 5.95082C45.4329 3.55085 54.5181 3.55085 63.1099 5.95082L63.3699 2.46292ZM53.3857 19.6182C53.5787 19.7062 54.0187 19.6882 54.0717 19.5663C54.116 19.4291 54.116 19.2814 54.0717 19.1443C54.1947 19.0383 54.2817 18.8103 54.2117 18.7053C54.1738 18.6492 54.148 18.5858 54.1359 18.5192C54.1238 18.4525 54.1258 18.3841 54.1416 18.3183C54.0186 18.3003 53.8867 18.1953 53.9747 18.1183C54.0508 18.062 54.1088 17.9847 54.1415 17.8958C54.1742 17.807 54.1802 17.7105 54.1587 17.6183C54.1847 17.4693 54.1936 17.2843 53.9387 17.2933C53.9297 17.1933 53.8507 16.8804 53.4558 17.1703C53.3938 17.2143 53.3237 17.1174 53.4117 17.0914C53.4997 17.0654 53.9567 16.9153 54.0267 16.7573C54.0535 16.7125 54.0692 16.6618 54.0723 16.6096C54.0754 16.5574 54.066 16.5051 54.0447 16.4574C54.0797 16.3874 54.1148 16.2464 54.0798 16.1934C54.0448 16.1404 53.9037 16.1494 53.8077 16.3874C53.7117 16.6254 53.7377 16.6244 53.4828 16.6684C53.2278 16.7124 53.0348 16.6684 52.8678 16.9493C52.8216 17.0389 52.7525 17.1148 52.6678 17.1694C52.6145 17.1984 52.5682 17.2385 52.5318 17.287C52.4954 17.3355 52.4699 17.3912 52.4568 17.4504C52.4388 17.5504 52.5268 17.7223 52.5088 17.8503C52.477 17.9727 52.4826 18.1018 52.5251 18.2209C52.5675 18.34 52.6448 18.4436 52.7469 18.5183C52.9048 18.6943 53.1468 18.9183 52.9668 19.0983C52.7868 19.2782 52.6328 19.0893 52.5008 18.9983C52.2395 18.865 51.9501 18.7964 51.6568 18.7983C51.1591 18.7681 50.6736 18.6318 50.233 18.3983C50.013 18.2133 50.148 18.1203 50.259 18.0643C50.2973 18.0509 50.3326 18.03 50.3628 18.0029C50.393 17.9758 50.4175 17.943 50.435 17.9063C50.4521 17.8707 50.4799 17.8413 50.5145 17.8223C50.5491 17.8033 50.5888 17.7956 50.628 17.8003C50.707 17.8003 50.786 17.7833 50.857 17.6163C50.928 17.4493 50.9979 17.5113 51.0769 17.4933C51.101 17.4836 51.1215 17.4668 51.1356 17.445C51.1498 17.4232 51.1568 17.3976 51.1558 17.3717C51.1548 17.3458 51.1459 17.3207 51.1302 17.3001C51.1144 17.2795 51.0926 17.2642 51.0679 17.2563C50.9269 17.2033 50.848 17.1513 50.857 17.0983C50.8763 17.05 50.9087 17.0081 50.9506 16.9772C50.9925 16.9463 51.042 16.9276 51.0939 16.9233C51.2259 16.9144 51.235 16.8234 51.226 16.7564C51.2173 16.7238 51.2215 16.6891 51.2379 16.6596C51.2544 16.6301 51.2816 16.6081 51.3139 16.5984C51.4019 16.5544 51.3929 16.4494 51.2439 16.4054C51.0949 16.3614 50.874 16.3054 50.874 16.2384C50.8854 16.1874 50.909 16.14 50.9428 16.1001C50.9766 16.0602 51.0195 16.0291 51.0679 16.0094C51.1679 15.9734 51.2089 15.8244 50.9889 15.8334C50.7689 15.8424 50.646 15.8684 50.603 15.7284C50.56 15.5884 50.55 15.5084 50.779 15.4204C50.879 15.3944 50.902 15.2624 50.726 15.2714C50.55 15.2804 50.348 15.3714 50.287 15.3064C50.226 15.2414 50.2431 15.1924 50.2781 15.1654C50.2895 15.1573 50.2979 15.1457 50.302 15.1322C50.306 15.1188 50.3054 15.1044 50.3004 15.0913C50.2953 15.0782 50.2861 15.0672 50.274 15.06C50.262 15.0527 50.2479 15.0497 50.234 15.0514C50.146 15.0514 49.803 15.1834 49.715 15.0874C49.6761 15.0365 49.6207 15.0007 49.5583 14.9863C49.4958 14.9719 49.4304 14.9797 49.3731 15.0084C49.2581 15.0784 49.2581 15.1844 49.3201 15.2454C49.3267 15.2512 49.332 15.2582 49.3359 15.2661C49.3397 15.2739 49.342 15.2824 49.3426 15.2912C49.3431 15.2999 49.342 15.3087 49.3392 15.317C49.3363 15.3252 49.3319 15.3329 49.3261 15.3394C49.3203 15.346 49.3133 15.3514 49.3055 15.3552C49.2976 15.3591 49.2891 15.3613 49.2803 15.3619C49.2716 15.3624 49.2628 15.3613 49.2546 15.3585C49.2463 15.3556 49.2387 15.3512 49.2321 15.3454C49.2117 15.3309 49.1964 15.3103 49.1885 15.2866C49.1806 15.2628 49.1804 15.2373 49.188 15.2135C49.169 15.1518 49.1286 15.0989 49.074 15.0644C49.012 15.0294 49.0121 14.9324 49.0301 14.8714C49.0481 14.8104 48.9771 14.7484 48.8722 14.8094C48.8114 14.8354 48.7624 14.8831 48.7348 14.9431C48.7073 15.0032 48.7031 15.0714 48.7231 15.1344C48.6091 15.1434 48.3232 15.2134 48.3102 15.3014C48.2972 15.3894 48.3451 15.4864 48.3281 15.5214C48.3111 15.5564 48.2141 15.5564 48.1612 15.5914C48.0122 15.7404 47.7612 15.8814 47.6952 15.9434C47.6293 16.0054 47.5892 16.0664 47.5102 16.1634C47.4777 16.1924 47.4552 16.2309 47.4459 16.2735C47.4365 16.316 47.4408 16.3604 47.4582 16.4004C47.5582 16.5414 47.6342 16.4444 47.6862 16.5234C47.7382 16.6024 47.7382 16.6234 47.7302 16.6644C47.7222 16.7054 47.8302 16.8054 47.9851 16.6734C48.1401 16.5414 48.2571 16.4004 48.3851 16.5504C48.5131 16.7004 48.3942 16.7874 48.3412 16.8843C48.2362 16.9903 47.9892 17.3154 47.8752 17.4114C47.7437 17.5629 47.6584 17.7488 47.6292 17.9473C47.6164 18.0624 47.567 18.1704 47.4882 18.2553C47.2832 18.1882 47.0881 18.0936 46.9083 17.9743C46.8819 17.9472 46.8501 17.926 46.8149 17.9121C46.7798 17.8982 46.742 17.8919 46.7042 17.8936C46.6665 17.8953 46.6295 17.9049 46.5957 17.922C46.562 17.939 46.5322 17.963 46.5083 17.9923C46.3357 18.2068 46.1827 18.4363 46.0513 18.6783C45.9723 18.8623 45.8514 18.7923 45.8514 19.1443C45.8514 19.2673 45.7514 19.3203 45.7024 19.5133C45.6934 19.5653 45.5523 19.8912 45.6933 19.9522C45.7537 19.9782 45.8213 19.982 45.8841 19.9628C45.9469 19.9435 46.0009 19.9026 46.0363 19.8472C46.067 19.6967 46.0844 19.5438 46.0883 19.3902C46.1323 19.2582 46.2733 19.1003 46.2883 19.0213C46.3033 18.9423 46.2793 18.8803 46.3323 18.8013C46.4106 18.7017 46.4958 18.6078 46.5873 18.5203C46.6114 18.4955 46.6415 18.4774 46.6747 18.4677C46.7079 18.4581 46.743 18.4571 46.7766 18.4651C46.8103 18.4731 46.8414 18.4896 46.8667 18.5131C46.892 18.5366 46.9108 18.5664 46.9213 18.5993C47.0213 18.8093 47.1852 19.2752 47.5212 19.4162C47.3244 19.5107 47.1183 19.5844 46.9062 19.6363C46.7393 19.6723 46.6062 19.6982 46.6782 20.1112C46.7382 20.3465 46.7589 20.5901 46.7393 20.8322C46.7158 20.9469 46.7229 21.0659 46.7599 21.177C46.7969 21.2881 46.8627 21.3875 46.9503 21.4652L47.1703 21.7732C47.2583 21.8522 47.4702 21.9402 47.4862 21.7642C47.5022 21.5882 47.5572 21.4122 47.3802 21.3952C47.3183 21.3709 47.2652 21.3285 47.2278 21.2736C47.1903 21.2186 47.1703 21.1537 47.1703 21.0872C47.1824 20.9395 47.1475 20.7917 47.0703 20.6652C46.9987 20.5401 46.9766 20.3928 47.0083 20.2522C47.0433 20.1202 47.1402 20.0412 47.3602 20.0852C47.5362 20.1472 48.3441 20.3662 48.5901 20.0942C49.1277 20.3737 49.7241 20.5214 50.33 20.5252C50.4568 20.7764 50.6131 21.0114 50.796 21.2252C50.8649 21.3148 50.8993 21.4263 50.8929 21.5392C50.8864 21.6521 50.8396 21.7589 50.7609 21.8401C50.569 22.0314 50.3463 22.189 50.102 22.3061C49.9306 22.3361 49.7717 22.4158 49.645 22.5351C49.5311 22.6501 49.4601 22.6502 49.3901 22.7992C49.3201 22.9482 49.1611 23.2121 49.4161 23.2121C49.671 23.2121 49.7411 23.0891 49.759 23.0181C49.777 22.9471 49.759 22.7991 49.859 22.7721C50.0873 22.7505 50.3002 22.6476 50.4589 22.4822C50.6672 22.274 50.9341 22.1344 51.2239 22.0821C51.2521 22.0763 51.2788 22.0647 51.3023 22.048C51.3257 22.0313 51.3455 22.0099 51.3604 21.9852C51.3752 21.9605 51.3849 21.933 51.3886 21.9044C51.3923 21.8758 51.39 21.8468 51.382 21.8192C51.3664 21.7533 51.3646 21.6849 51.3766 21.6184C51.3886 21.5518 51.4143 21.4884 51.4519 21.4322C51.7574 21.4819 52.0384 21.6301 52.2519 21.8542C52.2733 21.9146 52.2997 21.9731 52.3309 22.0292C52.2491 22.1277 52.1727 22.2305 52.1019 22.3371C52.0475 22.5099 51.9431 22.6627 51.8019 22.7761C51.6265 22.8878 51.4668 23.0223 51.3269 23.1761C51.2214 23.3143 51.1712 23.4868 51.1859 23.6601C51.2039 23.8531 51.2559 23.7601 51.3439 23.7601C51.4319 23.7601 51.6339 23.6601 51.6439 23.5311C51.6539 23.4021 51.5909 23.3371 51.7759 23.2581C52.0123 23.1445 52.213 22.9681 52.3559 22.7481C52.4553 22.5184 52.6091 22.3163 52.8039 22.1592C52.9708 22.0592 52.9358 21.9222 52.8568 21.7812C52.7778 21.6402 52.5048 21.2622 52.5568 21.0162C52.6088 20.7702 52.8998 20.6162 52.9878 20.2432C53.061 20.0193 53.0545 19.777 52.9697 19.5573C53.1047 19.4953 53.1937 19.5313 53.3857 19.6182ZM40.3967 2.89289C40.4147 3.45587 40.3088 3.69286 39.9138 3.78086L37.814 4.25484L37.893 5.22184L37.287 5.36283L37.1111 2.91993L39.6159 2.3569C39.9308 2.28591 40.3797 2.32991 40.3967 2.89589V2.89289ZM39.6969 3.06891C39.6899 3.00792 39.6268 2.91991 39.4508 2.9549C39.2749 2.9899 37.764 3.33288 37.764 3.33288L37.782 3.69285L39.5308 3.3059C39.5834 3.29478 39.6296 3.26386 39.66 3.21954C39.6903 3.17523 39.7024 3.12089 39.6938 3.06788L39.6969 3.06891ZM44.2495 3.39391C44.2585 3.6399 44.2405 3.96486 43.5816 4.06185L41.7007 4.36183C41.3667 4.42383 40.8218 4.37087 40.8008 3.73789L40.7748 2.63094C40.7748 2.40295 40.7658 2.06897 41.3897 1.97197L43.4206 1.63794C43.6665 1.59394 44.2204 1.76095 44.2204 2.21793L44.2495 3.39391ZM43.6255 3.19989L43.6076 2.47891C43.6043 2.43837 43.5925 2.399 43.5731 2.36325C43.5537 2.3275 43.5271 2.29619 43.4949 2.27134C43.4627 2.24648 43.4256 2.22862 43.3861 2.21891C43.3466 2.2092 43.3056 2.20785 43.2655 2.21494L41.7097 2.47891C41.3847 2.54091 41.3937 2.7169 41.3937 2.90089L41.4117 3.55986C41.4297 3.83285 41.5697 3.82385 41.7807 3.78886L43.3185 3.54289C43.4039 3.53478 43.4829 3.49431 43.5394 3.4298C43.596 3.36529 43.6258 3.28163 43.6226 3.19592L43.6255 3.19989ZM49.3461 1.74896H51.8249V1.222H49.0561C48.9151 1.222 48.4412 1.25295 48.4452 1.96892C48.4492 2.68489 48.9501 2.69789 49.0561 2.69789H50.998C51.0539 2.69789 51.1076 2.72015 51.1471 2.75972C51.1867 2.79929 51.2089 2.85293 51.2089 2.90889C51.2081 2.93559 51.202 2.96191 51.1909 2.98621C51.1799 3.01052 51.164 3.03234 51.1443 3.05042C51.1246 3.0685 51.1016 3.08248 51.0765 3.0915C51.0513 3.10051 51.0246 3.10439 50.998 3.10291H48.5192V3.62987H51.2789C51.4549 3.62987 51.9159 3.65586 51.9159 2.89589C51.9159 2.13592 51.3979 2.17094 51.2789 2.17094H49.345C49.2889 2.17094 49.2352 2.14865 49.1955 2.10899C49.1558 2.06933 49.1336 2.01555 49.1336 1.95946C49.1336 1.90337 49.1558 1.84959 49.1955 1.80993C49.2352 1.77027 49.2889 1.74798 49.345 1.74798L49.3461 1.74896ZM56.6674 3.02393L58.7063 3.41088L58.6363 4.43086L59.2163 4.53687L59.3652 2.04893L58.7943 1.94396L58.7323 2.9109L56.6934 2.52395L56.7465 1.60999L56.1655 1.52198L56.0165 4.02188L56.5965 4.10085L56.6674 3.02393ZM62.556 4.70282L60.3763 4.23684L60.4032 3.73686L62.592 4.20284L62.6271 3.70286L60.4381 3.23688L60.4562 2.77992L62.662 3.24591L62.697 2.74593L59.9023 2.15696L59.7612 4.61786L62.5121 5.20683L62.556 4.70282ZM52.9418 3.70286L55.5086 3.89585L55.5346 3.35088L53.3897 3.19287C53.1898 3.18387 52.9688 3.12291 52.9898 2.75392L53.0078 2.22697C53.0168 2.01597 53.0868 1.82693 53.4207 1.84893L55.6205 2.02495L55.6465 1.47999L53.0718 1.27998C52.8518 1.26198 52.4308 1.24496 52.3948 1.96593C52.3588 2.6869 52.3419 3.01191 52.3419 3.01191C52.3334 3.18155 52.3908 3.34794 52.502 3.47631C52.6132 3.60468 52.7696 3.68514 52.9387 3.70091L52.9418 3.70286ZM48.0572 3.2409V3.64689L47.4503 3.67588V3.3189C47.4503 2.96292 47.2503 2.74093 46.9243 2.76393L45.2463 2.87294L45.2623 3.84385L44.6624 3.8729L44.5965 1.44599L47.1162 1.27797C47.5772 1.24097 47.9832 1.33499 47.9822 1.96697C47.9757 2.15431 47.9194 2.33649 47.8191 2.4949C47.908 2.59568 47.9748 2.71393 48.0153 2.84205C48.0558 2.97017 48.0691 3.10535 48.0542 3.23889L48.0572 3.2409ZM47.2483 2.04094C47.2423 1.91194 47.1842 1.86196 47.0432 1.85796L45.2203 1.95793L45.2284 2.34293L47.0283 2.24296C47.1503 2.22296 47.2522 2.16295 47.2452 2.03496L47.2483 2.04094ZM46.1484 14.0024C46.0094 14.0024 45.9404 13.9404 45.9144 13.7915H45.7064C45.7044 13.876 45.7258 13.9594 45.7684 14.0325C45.8076 14.0946 45.8631 14.1447 45.9289 14.1773C45.9947 14.2099 46.0681 14.2238 46.1413 14.2175C46.1917 14.2217 46.2426 14.2157 46.2907 14.1999C46.3388 14.1841 46.3832 14.1588 46.4213 14.1255C46.464 14.087 46.4979 14.0397 46.5207 13.9869C46.5434 13.9341 46.5545 13.877 46.5532 13.8195C46.5596 13.7493 46.5418 13.6791 46.5027 13.6205C46.4636 13.5619 46.4056 13.5185 46.3383 13.4975L46.0084 13.3445C45.9874 13.3373 45.9691 13.3238 45.9559 13.3059C45.9427 13.2881 45.9352 13.2667 45.9344 13.2445C45.9344 13.1585 46.0093 13.0965 46.1153 13.0965C46.2213 13.0965 46.2914 13.1545 46.3153 13.2965H46.5263C46.5311 13.2412 46.5238 13.1856 46.5049 13.1334C46.486 13.0812 46.4559 13.0338 46.4168 12.9945C46.3776 12.9552 46.3304 12.9248 46.2784 12.9056C46.2263 12.8865 46.1706 12.8789 46.1153 12.8835C46.0636 12.8804 46.0118 12.8883 45.9634 12.9068C45.9151 12.9253 45.8711 12.954 45.8347 12.9908C45.7982 13.0276 45.7702 13.0718 45.7522 13.1204C45.7342 13.169 45.7267 13.2208 45.7303 13.2725C45.7251 13.3399 45.7418 13.4073 45.7778 13.4646C45.8138 13.5218 45.8673 13.566 45.9304 13.5905L46.2524 13.7395C46.3184 13.7715 46.3453 13.8035 46.3453 13.8505C46.3453 13.9345 46.2654 13.9955 46.1484 13.9955V14.0024ZM46.9482 14.1924H47.1643V13.1425H47.4752V12.9105H46.6293V13.1425H46.9473L46.9482 14.1924ZM48.0481 14.2175C48.3851 14.2175 48.4712 13.9945 48.4712 13.7025V12.9115H48.2551V13.6975C48.2551 13.9085 48.1992 13.9855 48.0442 13.9855C47.8892 13.9855 47.8442 13.9045 47.8442 13.6975V12.9115H47.6282V13.7025C47.6242 13.9955 47.7112 14.2104 48.0462 14.2104L48.0481 14.2175ZM48.9041 14.1924H49.1201V13.1425H49.4311V12.9105H48.5862V13.1425H48.9041V14.1924ZM50.8339 14.2175C50.8984 14.218 50.9618 14.2009 51.0173 14.1681C51.0727 14.1354 51.1183 14.0882 51.149 14.0315L51.1699 14.1935H51.3189V13.4955H50.883V13.7155H51.1199C51.0919 13.8875 51.002 13.9825 50.867 13.9825C50.69 13.9825 50.5739 13.8115 50.5739 13.5505C50.5739 13.2895 50.686 13.1165 50.867 13.1165C50.985 13.1165 51.055 13.1785 51.097 13.3165H51.3179C51.317 13.2582 51.3045 13.2008 51.2811 13.1474C51.2578 13.094 51.2241 13.0458 51.1819 13.0056C51.1398 12.9654 51.09 12.934 51.0356 12.9132C50.9811 12.8924 50.9231 12.8826 50.8649 12.8845C50.5529 12.8845 50.3499 13.1535 50.3499 13.5615C50.3499 13.9405 50.55 14.2104 50.8329 14.2104L50.8339 14.2175ZM53.8337 14.1924H54.0507V13.1425H54.3617V12.9105H53.5167V13.1425H53.8347L53.8337 14.1924ZM49.8561 14.1924H50.072V13.1425H50.383V12.9105H49.537V13.1425H49.855L49.8561 14.1924ZM51.6699 14.1924H51.4429L51.8178 12.9115H52.0618L52.4328 14.1924H52.1968L52.1248 13.9235H51.7429L51.6699 14.1924ZM51.8028 13.7035H52.0669L51.9349 13.2035L51.8028 13.7035ZM52.7708 14.1924H52.5548V12.9115H53.0167C53.1657 12.9115 53.2228 12.9275 53.2857 12.9855C53.3235 13.0254 53.3527 13.0726 53.3714 13.1242C53.3902 13.1758 53.3981 13.2307 53.3947 13.2855C53.4026 13.3446 53.3926 13.4048 53.3661 13.4582C53.3395 13.5117 53.2976 13.556 53.2457 13.5855C53.3457 13.6395 53.3598 13.6745 53.3687 13.9235C53.3757 14.1305 53.3818 14.1625 53.4148 14.2015H53.1758C53.1545 14.137 53.1454 14.0692 53.1488 14.0015C53.1438 13.8135 53.1697 13.7015 52.9697 13.7015H52.7698L52.7708 14.1924ZM52.7708 13.4705H52.9768C53.1248 13.4705 53.1767 13.4295 53.1767 13.3055C53.1767 13.1815 53.1308 13.1435 52.9768 13.1435H52.7708V13.4705ZM66.3398 3.46392C66.3404 3.66432 66.2814 3.86037 66.1705 4.02725C66.0595 4.19412 65.9014 4.32429 65.7164 4.40126C65.5314 4.47822 65.3277 4.4985 65.1311 4.45954C64.9346 4.42059 64.754 4.32416 64.6123 4.18246C64.4706 4.04075 64.3741 3.86014 64.3352 3.66356C64.2962 3.46697 64.3166 3.26328 64.3935 3.07825C64.4705 2.89322 64.6006 2.7352 64.7675 2.62423C64.9344 2.51326 65.1304 2.45433 65.3308 2.45492C65.5962 2.45649 65.8504 2.56251 66.0383 2.75002C66.2262 2.93753 66.3327 3.19146 66.3348 3.4569L66.3398 3.46392ZM66.2187 3.46392C66.2181 3.28814 66.1655 3.11643 66.0673 2.97059C65.9692 2.82475 65.8301 2.71132 65.6675 2.64455C65.5049 2.57779 65.3261 2.56074 65.1538 2.59554C64.9815 2.63034 64.8235 2.7154 64.6995 2.84004C64.5756 2.96468 64.4913 3.12328 64.4575 3.29577C64.4236 3.46826 64.4418 3.64695 64.5095 3.80918C64.5772 3.97141 64.6913 4.10993 64.8377 4.20723C64.9841 4.30454 65.156 4.35624 65.3318 4.35585C65.4488 4.35507 65.5646 4.33114 65.6723 4.28548C65.7801 4.23982 65.8777 4.17329 65.9597 4.08975C66.0416 4.0062 66.1063 3.9073 66.1499 3.79868C66.1934 3.69007 66.2151 3.57393 66.2137 3.4569L66.2187 3.46392ZM65.4928 3.5089L65.8348 4.03085H65.6698L65.3468 3.5089H65.0928V4.03085H64.9549V2.89589H65.4478C65.5428 2.88915 65.6379 2.90854 65.7228 2.95191C65.7635 2.97795 65.7967 3.01416 65.8192 3.05695C65.8416 3.09974 65.8525 3.14764 65.8508 3.19592C65.8448 3.41491 65.6888 3.49588 65.4868 3.50188L65.4928 3.5089ZM65.7098 3.19592C65.7098 3.02093 65.5558 2.99592 65.4158 2.99592H65.0928V3.39587H65.3048C65.4578 3.39587 65.7048 3.41987 65.7048 3.18988L65.7098 3.19592Z" fill="white"/>
</g>
<defs>
<clipPath id="clip0_1_526">
<rect width="101.84" height="50" fill="white" transform="translate(0.23999 0.0700684)"/>
</clipPath>
</defs>
</svg>
