<svg width="41" height="41" viewBox="0 0 41 41" fill="none" xmlns="http://www.w3.org/2000/svg">
<g clip-path="url(#clip0_1_514)">
<path d="M20.17 38.2034C10.17 38.2034 2.17004 30.0701 2.03671 20.0701C2.03671 17.9367 2.43671 15.8034 3.23671 13.6701L13.77 35.0034C13.9034 35.4034 14.17 35.5367 14.57 35.5367C14.8367 35.5367 14.97 35.2701 15.1034 35.0034L20.0367 24.0701C20.0367 23.9367 20.17 23.8034 20.3034 23.8034C20.4367 23.8034 20.4367 23.9367 20.57 24.0701L25.5034 35.0034C25.6367 35.4034 25.9034 35.5367 26.3034 35.5367C26.57 35.5367 26.7034 35.2701 26.8367 35.0034L37.37 13.6701C38.17 15.6701 38.57 17.9367 38.57 20.0701C38.3034 30.0701 30.17 38.2034 20.17 38.2034ZM20.17 15.9367C20.0367 15.9367 20.0367 15.8034 19.9034 15.6701L14.17 2.87007C18.0367 1.53673 22.17 1.53673 26.0367 2.87007L20.3034 15.6701C20.4367 15.8034 20.3034 15.9367 20.17 15.9367ZM14.4367 29.1367C14.3034 29.1367 14.3034 29.0034 14.17 28.8701L4.97004 10.3367C6.57004 7.8034 8.83671 5.67007 11.5034 4.2034L18.17 19.0034C18.17 19.2701 18.4367 19.4034 18.7034 19.2701H21.9034C22.17 19.2701 22.3034 19.1367 22.4367 19.0034L29.1034 4.2034C31.77 5.67007 33.9034 7.8034 35.6367 10.3367L26.3034 28.8701C26.3034 29.0034 26.17 29.1367 26.0367 29.1367C25.9034 29.1367 25.9034 29.0034 25.77 28.8701L22.3034 21.0034C22.17 20.7367 22.0367 20.6034 21.77 20.7367H18.57C18.3034 20.7367 18.17 20.8701 18.0367 21.0034L14.7034 28.8701C14.57 29.0034 14.57 29.1367 14.4367 29.1367ZM20.17 40.0701C31.2367 40.0701 40.17 31.1367 40.17 20.0701C40.17 9.0034 31.2367 0.0700684 20.17 0.0700684C9.10338 0.0700684 0.170044 9.0034 0.170044 20.0701C0.170044 31.1367 9.10338 40.0701 20.17 40.0701Z" fill="white"/>
</g>
<defs>
<clipPath id="clip0_1_514">
<rect width="40" height="40" fill="white" transform="translate(0.170044 0.0700684)"/>
</clipPath>
</defs>
</svg>
