<svg width="126" height="27" viewBox="0 0 126 27" fill="none" xmlns="http://www.w3.org/2000/svg">
<g clip-path="url(#clip0_1_480)">
<g filter="url(#filter0_d_1_480)">
<path d="M13.819 0.0705566C11.2478 0.0705566 8.73443 0.832993 6.59659 2.26145C4.45875 3.68991 2.79251 5.72023 1.80857 8.09567C0.824633 10.4711 0.56719 13.085 1.0688 15.6067C1.57041 18.1285 2.80854 20.4449 4.62662 22.2629C6.4447 24.081 8.76108 25.3192 11.2828 25.8208C13.8046 26.3224 16.4185 26.0649 18.7939 25.081C21.1693 24.097 23.1997 22.4308 24.6281 20.293C26.0566 18.1551 26.819 15.6417 26.819 13.0706C26.819 9.62274 25.4494 6.31614 23.0114 3.87817C20.5734 1.4402 17.2668 0.0705566 13.819 0.0705566ZM13.819 25.7426C11.3125 25.7424 8.86239 24.9989 6.77843 23.6062C4.69448 22.2135 3.07031 20.2341 2.1113 17.9184C1.15229 15.6026 0.901526 13.0545 1.39071 10.5962C1.87989 8.13791 3.08706 5.8799 4.85955 4.10769C6.63204 2.33547 8.89025 1.12867 11.3486 0.63987C13.807 0.151073 16.3551 0.402242 18.6707 1.36161C20.9863 2.32099 22.9654 3.94547 24.3578 6.02965C25.7501 8.11382 26.4932 10.5641 26.493 13.0706C26.4929 14.7348 26.1649 16.3827 25.528 17.9202C24.891 19.4577 23.9574 20.8547 22.7805 22.0314C21.6036 23.2081 20.2064 24.1415 18.6688 24.7783C17.1312 25.415 15.4832 25.7427 13.819 25.7426Z" fill="white"/>
<path d="M13.819 1.28955C11.4894 1.29074 9.21248 1.98261 7.27608 3.27769C5.33968 4.57277 3.83074 6.41291 2.94003 8.56547C2.04932 10.718 1.81684 13.0864 2.27197 15.371C2.7271 17.6557 3.84941 19.7541 5.49701 21.401C7.14461 23.0479 9.24352 24.1694 11.5284 24.6235C13.8133 25.0777 16.1815 24.8442 18.3337 23.9526C20.4858 23.0609 22.3253 21.5512 23.6196 19.6143C24.9139 17.6773 25.6048 15.4001 25.605 13.0706C25.6051 11.523 25.3003 9.99057 24.708 8.56085C24.1157 7.13113 23.2474 5.83212 22.1529 4.73807C21.0584 3.64401 19.759 2.77633 18.329 2.18462C16.8991 1.59291 15.3665 1.28876 13.819 1.28955ZM13.819 23.8076C11.6951 23.8076 9.61902 23.1778 7.85314 21.9978C6.08726 20.8179 4.71095 19.1407 3.89824 17.1786C3.08554 15.2164 2.87295 13.0573 3.28736 10.9743C3.70177 8.89131 4.72456 6.97798 6.2264 5.47629C7.72824 3.97459 9.64166 2.95197 11.7247 2.53776C13.8077 2.12354 15.9668 2.33633 17.9289 3.14922C19.891 3.96211 21.568 5.33858 22.7478 7.10457C23.9276 8.87055 24.5572 10.9467 24.557 13.0706C24.557 14.4806 24.2792 15.8769 23.7396 17.1797C23.1999 18.4824 22.4089 19.6661 21.4118 20.6631C20.4147 21.6601 19.2309 22.451 17.9281 22.9905C16.6253 23.5301 15.229 23.8077 13.819 23.8076Z" fill="white"/>
<path d="M18.7689 17.0325V17.4325C18.7715 17.4933 18.7515 17.553 18.7127 17.5999C18.6739 17.6468 18.6191 17.6777 18.5589 17.6865C18.4729 17.6865 18.3859 17.6865 18.2999 17.6865C17.9919 17.6815 17.9369 17.3055 17.9999 17.0865C18.4932 15.529 18.7649 13.9098 18.8069 12.2765C18.8466 11.0363 18.6665 9.79891 18.2749 8.62152C17.7206 6.70926 16.5941 5.01255 15.0469 3.75952C14.9043 3.6238 14.7176 3.54394 14.5209 3.53452C14.2939 3.51852 14.1069 3.51052 13.8759 3.51052C12.941 3.50861 12.0108 3.64337 11.1149 3.91052C10.7869 4.01052 10.8359 4.23752 11.0149 4.39252C12.145 5.31776 13.1152 6.42249 13.8869 7.66252C13.6513 7.6688 13.4172 7.6222 13.2019 7.52616C12.9867 7.43012 12.7956 7.28707 12.6429 7.10752C11.6982 6.21894 10.6468 5.45107 9.51289 4.82152C9.4458 4.77287 9.3665 4.74384 9.28386 4.73766C9.20121 4.73148 9.11848 4.74839 9.04489 4.78652C8.10874 5.30989 7.27661 6.00067 6.58989 6.82452C6.45589 6.98052 6.54289 7.10152 6.67489 7.17252C7.91873 7.85183 9.07808 8.67552 10.1289 9.62652C9.87589 9.83852 9.47589 9.76952 8.89589 9.46452C7.94122 8.97132 6.93245 8.59077 5.88989 8.33052C5.80721 8.30342 5.71788 8.30453 5.6359 8.33367C5.55392 8.36281 5.48393 8.41832 5.43689 8.49152C4.90032 9.45249 4.54253 10.5028 4.38089 11.5915C4.37338 11.6414 4.37578 11.6922 4.38796 11.7411C4.40014 11.79 4.42186 11.8361 4.45187 11.8766C4.48188 11.9171 4.51959 11.9513 4.56283 11.9772C4.60608 12.0031 4.65402 12.0202 4.70389 12.0275C6.60989 12.3625 10.0109 13.2595 10.5759 17.1765C10.5907 17.2611 10.5806 17.3482 10.5468 17.4272C10.5131 17.5062 10.4571 17.5737 10.3858 17.6216C10.3145 17.6694 10.2308 17.6955 10.1449 17.6968C10.059 17.698 9.97458 17.6743 9.90189 17.6285L8.18289 16.8235C8.1227 16.7925 8.05654 16.7748 7.98889 16.7715H5.28889C5.20991 16.763 5.13027 16.7798 5.06141 16.8194C4.99254 16.859 4.93798 16.9194 4.90555 16.9919C4.87312 17.0644 4.8645 17.1453 4.88091 17.223C4.89732 17.3008 4.93792 17.3713 4.99689 17.4245C5.65274 18.175 6.24071 18.9821 6.75389 19.8365C6.77074 19.8705 6.79735 19.8986 6.83032 19.9173C6.86329 19.936 6.9011 19.9445 6.93889 19.9415H8.11889C8.19573 19.9422 8.27124 19.9215 8.33689 19.8815L9.44989 19.2285C9.51734 19.1949 9.59291 19.1811 9.66789 19.1885H18.5539C18.5815 19.1863 18.6092 19.1898 18.6354 19.1989C18.6615 19.2079 18.6855 19.2223 18.7058 19.2411C18.7261 19.2599 18.7423 19.2827 18.7533 19.3081C18.7643 19.3335 18.77 19.3609 18.7699 19.3885V19.8265C18.77 19.8639 18.7782 19.9009 18.794 19.9348C18.8097 19.9688 18.8326 19.9989 18.8612 20.0231C18.8897 20.0474 18.9231 20.0651 18.9591 20.0752C18.9952 20.0853 19.0329 20.0874 19.0699 20.0815C20.1632 19.9073 21.1788 19.4084 21.9849 18.6495C22.0152 18.6214 22.0394 18.5874 22.0559 18.5495C22.0724 18.5117 22.0809 18.4708 22.0809 18.4295C22.0809 18.3882 22.0724 18.3473 22.0559 18.3095C22.0394 18.2716 22.0152 18.2376 21.9849 18.2095C21.1784 17.4514 20.1629 16.9529 19.0699 16.7785C19.033 16.7726 18.9952 16.7748 18.9592 16.7848C18.9232 16.7948 18.8898 16.8124 18.8612 16.8366C18.8326 16.8607 18.8096 16.8906 18.7937 16.9245C18.7777 16.9583 18.7693 16.9951 18.7689 17.0325ZM15.5539 16.5735C15.3166 16.5735 15.0846 16.5031 14.8872 16.3713C14.6899 16.2394 14.5361 16.052 14.4452 15.8327C14.3544 15.6135 14.3306 15.3722 14.377 15.1394C14.4233 14.9066 14.5375 14.6928 14.7054 14.525C14.8732 14.3572 15.087 14.2429 15.3198 14.1966C15.5526 14.1503 15.7938 14.174 16.0131 14.2649C16.2324 14.3557 16.4198 14.5095 16.5517 14.7068C16.6835 14.9042 16.7539 15.1362 16.7539 15.3735C16.7539 15.5311 16.7229 15.6871 16.6625 15.8327C16.6022 15.9783 16.5139 16.1106 16.4024 16.222C16.291 16.3335 16.1587 16.4219 16.0131 16.4822C15.8675 16.5425 15.7115 16.5735 15.5539 16.5735Z" fill="white"/>
<path d="M41.6544 5.42045C41.6923 5.46964 41.7419 5.50865 41.7986 5.53396C41.8553 5.55927 41.9174 5.57009 41.9794 5.56545H45.4314C45.4934 5.57045 45.5556 5.5598 45.6124 5.53446C45.6692 5.50912 45.7187 5.46992 45.7564 5.42045L47.4004 3.54445C47.5444 3.37945 47.4904 3.21845 47.2554 3.21845H44.9284C44.8646 3.21631 44.8013 3.22998 44.744 3.25825C44.6868 3.28651 44.6375 3.32849 44.6004 3.38045L43.9004 4.39245H43.5194L42.8194 3.38045C42.7806 3.32691 42.7289 3.28401 42.6691 3.2557C42.6093 3.22739 42.5434 3.21458 42.4774 3.21845H40.1564C39.9204 3.21845 39.8694 3.38045 40.0114 3.54445L41.6544 5.42045Z" fill="white"/>
<path d="M62.4892 12.2092L69.2412 6.88323C69.4412 6.73923 69.3672 6.55823 69.1152 6.55823H64.7092C64.5883 6.55645 64.4714 6.60162 64.3832 6.68423L57.4832 12.1932V6.82923C57.4883 6.79244 57.4849 6.75495 57.4731 6.71972C57.4613 6.68449 57.4415 6.65247 57.4152 6.6262C57.3889 6.59993 57.3569 6.58012 57.3217 6.56832C57.2865 6.55653 57.249 6.55307 57.2122 6.55823H53.8542C53.8173 6.55312 53.7798 6.55659 53.7446 6.56838C53.7093 6.58017 53.6772 6.59997 53.6509 6.62621C53.6246 6.65246 53.6047 6.68444 53.5927 6.71966C53.5808 6.75488 53.5772 6.79238 53.5822 6.82923V19.2882C53.577 19.3251 53.5804 19.3627 53.5923 19.398C53.6041 19.4334 53.624 19.4654 53.6504 19.4917C53.6768 19.518 53.709 19.5378 53.7443 19.5495C53.7797 19.5612 53.8173 19.5646 53.8542 19.5592H57.2122C57.249 19.5646 57.2866 19.5613 57.3219 19.5496C57.3573 19.5379 57.3894 19.5181 57.4157 19.4917C57.442 19.4654 57.4618 19.4333 57.4735 19.398C57.4852 19.3626 57.4886 19.3251 57.4832 19.2882V16.1462L59.5232 14.5392L64.4702 19.4142C64.5126 19.4625 64.5654 19.5006 64.6246 19.5255C64.6839 19.5505 64.748 19.5617 64.8122 19.5582H69.5432C69.7782 19.5582 69.8512 19.3962 69.6712 19.2322L62.4892 12.2092Z" fill="white"/>
<path d="M97.5656 6.55835H90.3656C90.3287 6.55306 90.2911 6.5564 90.2557 6.56812C90.2203 6.57983 90.1881 6.5996 90.1616 6.62587C90.1351 6.65214 90.1151 6.68418 90.1032 6.71949C90.0912 6.7548 90.0876 6.7924 90.0926 6.82935V19.2883C90.0876 19.3253 90.0912 19.3629 90.1032 19.3982C90.1151 19.4335 90.1351 19.4656 90.1616 19.4918C90.1881 19.5181 90.2203 19.5379 90.2557 19.5496C90.2911 19.5613 90.3287 19.5646 90.3656 19.5593H97.5656C105.277 19.5593 106.288 19.1793 106.288 13.1123V13.0043C106.288 6.93734 105.277 6.55835 97.5656 6.55835ZM102.19 13.1493C102.19 16.4903 101.917 16.5983 97.5896 16.5983H94.0136V9.51935H97.5896C101.921 9.51935 102.19 9.62834 102.19 12.9693V13.1493Z" fill="white"/>
<path d="M46.2225 11.6872L41.3834 11.5442C39.1634 11.4712 39.1264 11.2372 39.1264 10.2442C39.1264 9.21523 39.3974 9.21523 44.7264 9.21523C45.7354 9.21523 48.9504 9.26923 50.6504 9.30523C50.6872 9.31039 50.7247 9.30694 50.76 9.29514C50.7952 9.28335 50.8272 9.26353 50.8535 9.23726C50.8797 9.21099 50.8996 9.17898 50.9114 9.14375C50.9231 9.10852 50.9266 9.07103 50.9214 9.03423V6.83423C50.9257 6.7983 50.9223 6.76189 50.9114 6.72737C50.9006 6.69284 50.8826 6.661 50.8587 6.63391C50.8347 6.60681 50.8053 6.58509 50.7723 6.57015C50.7394 6.55522 50.7036 6.54741 50.6674 6.54723C48.9885 6.45423 46.2444 6.36523 44.2764 6.36523C36.5494 6.36523 35.3044 6.51023 35.3044 10.5002C35.3044 13.9132 36.0614 14.3642 41.0044 14.5282L45.4454 14.6712C47.5224 14.7442 47.5604 14.9972 47.5604 15.7712C47.5604 16.8372 47.4694 16.8902 42.5604 16.8902C40.2674 16.8902 37.9024 16.8002 35.7544 16.7272C35.5734 16.7102 35.4834 16.8012 35.4834 16.9802V19.2922C35.4791 19.3282 35.4824 19.3647 35.493 19.3993C35.5037 19.4339 35.5216 19.4659 35.5455 19.4932C35.5693 19.5205 35.5987 19.5424 35.6316 19.5576C35.6645 19.5727 35.7002 19.5808 35.7365 19.5812C37.6505 19.6702 40.7724 19.7592 42.5764 19.7592C50.4504 19.7592 51.3895 19.7432 51.3895 15.4592C51.3895 12.0832 50.3945 11.8122 46.2225 11.6872Z" fill="white"/>
<path d="M125.473 19.2333L119.243 6.75831C119.221 6.69574 119.179 6.64218 119.124 6.606C119.068 6.56982 119.002 6.55305 118.936 6.55831H113.411C113.345 6.55174 113.278 6.56796 113.222 6.60431C113.166 6.64066 113.124 6.69497 113.103 6.75831L106.874 19.2333C106.782 19.4333 106.857 19.5593 107.074 19.5593H110.669C110.736 19.5658 110.802 19.5496 110.858 19.5132C110.914 19.4769 110.955 19.4226 110.976 19.3593L111.916 17.5183H120.434L121.372 19.3593C121.394 19.4221 121.436 19.4757 121.492 19.5119C121.548 19.5481 121.614 19.5648 121.68 19.5593H125.273C125.491 19.5583 125.562 19.4323 125.473 19.2333ZM113.283 14.7933L115.938 9.53731H116.408L119.061 14.7933H113.283Z" fill="white"/>
<path d="M79.0389 6.28735C71.4739 6.28735 70.4389 6.66735 70.4389 12.9684V13.1484C70.4389 19.4484 71.4709 19.8294 79.0389 19.8294C86.6069 19.8294 87.6339 19.4484 87.6339 13.1294V12.9684C87.6329 6.66735 86.6049 6.28735 79.0389 6.28735ZM83.4389 13.1484C83.4389 16.7964 83.2959 16.8484 79.0339 16.8484C74.7719 16.8484 74.6269 16.7944 74.6269 13.1484V12.9684C74.6269 9.32135 74.7719 9.26835 79.0339 9.26835C83.2959 9.26835 83.4389 9.32235 83.4389 12.9684V13.1484Z" fill="white"/>
</g>
</g>
<defs>
<filter id="filter0_d_1_480" x="-3.181" y="0.0705566" width="132.692" height="34" filterUnits="userSpaceOnUse" color-interpolation-filters="sRGB">
<feFlood flood-opacity="0" result="BackgroundImageFix"/>
<feColorMatrix in="SourceAlpha" type="matrix" values="0 0 0 0 0 0 0 0 0 0 0 0 0 0 0 0 0 0 127 0" result="hardAlpha"/>
<feOffset dy="4"/>
<feGaussianBlur stdDeviation="2"/>
<feComposite in2="hardAlpha" operator="out"/>
<feColorMatrix type="matrix" values="0 0 0 0 0 0 0 0 0 0 0 0 0 0 0 0 0 0 0.25 0"/>
<feBlend mode="normal" in2="BackgroundImageFix" result="effect1_dropShadow_1_480"/>
<feBlend mode="normal" in="SourceGraphic" in2="effect1_dropShadow_1_480" result="shape"/>
</filter>
<clipPath id="clip0_1_480">
<rect width="124.69" height="26" fill="white" transform="translate(0.820007 0.0700684)"/>
</clipPath>
</defs>
</svg>
