<svg width="116" height="41" viewBox="0 0 116 41" fill="none" xmlns="http://www.w3.org/2000/svg">
<g clip-path="url(#clip0_1_521)">
<path d="M95.3999 0.0708008C90.9264 0.0708008 86.5844 1.51811 83.032 4.41273C79.4795 1.64968 75.1375 0.0708008 70.664 0.0708008C66.1905 0.0708008 61.8486 1.51811 58.2961 4.41273C54.7436 1.64968 50.4017 0.0708008 45.9282 0.0708008C41.4547 0.0708008 37.1128 1.51811 33.5603 4.41273C29.8762 1.51811 25.4027 0.0708008 20.9292 0.0708008C9.87706 0.0708008 0.930054 9.0178 0.930054 20.07C0.930054 31.1222 9.87706 40.0692 20.9292 40.0692C25.4027 40.0692 29.7447 38.6219 33.2971 35.7272C36.8496 38.4903 41.1916 40.0692 45.6651 40.0692C50.1386 40.0692 54.4805 38.6219 58.033 35.7272C61.5855 38.4903 65.9274 40.0692 70.4009 40.0692C74.8744 40.0692 79.2163 38.6219 82.7688 35.7272C86.3213 38.4903 90.6632 40.0692 95.1367 40.0692C106.189 40.0692 115.136 31.1222 115.136 20.07C115.136 9.0178 106.452 0.0708008 95.3999 0.0708008ZM30.1394 32.5695C27.6395 34.4115 24.3501 35.5957 21.0608 35.5957C12.5085 35.5957 5.6667 28.7538 5.6667 20.2016C5.6667 11.6493 12.377 4.67588 20.9292 4.67588C24.3501 4.67588 27.5079 5.86004 30.0078 7.70207C27.2448 11.2546 25.6659 15.5965 25.6659 20.07C25.7975 24.5435 27.2448 29.017 30.1394 32.5695ZM33.2971 29.2801C31.3235 26.6487 30.271 23.3593 30.271 20.07C30.271 16.7806 31.3235 13.4913 33.2971 10.8598C35.2708 13.4913 36.3233 16.7806 36.3233 20.07C36.3233 23.3593 35.2708 26.6487 33.2971 29.2801ZM54.8752 32.5695C52.2437 34.5431 49.086 35.5957 45.6651 35.5957C42.3757 35.5957 39.218 34.5431 36.5865 32.5695C39.3495 29.017 40.9284 24.6751 40.9284 20.2016C40.9284 15.7281 39.3495 11.2546 36.5865 7.83364C39.218 5.86004 42.3757 4.80745 45.6651 4.80745C49.086 4.80745 52.2437 5.86004 54.8752 7.83364C52.1122 11.3861 50.5333 15.7281 50.5333 20.2016C50.5333 24.5435 52.1122 29.017 54.8752 32.5695ZM58.1646 29.2801C56.1909 26.6487 55.1384 23.3593 55.1384 20.07C55.1384 16.7806 56.1909 13.4913 58.1646 10.8598C60.1382 13.4913 61.1907 16.7806 61.1907 20.07C61.1907 23.3593 60.1382 26.6487 58.1646 29.2801ZM79.7426 32.5695C77.2427 34.4115 74.085 35.5957 70.664 35.5957C67.2431 35.5957 64.0854 34.5431 61.5855 32.5695C64.3485 29.017 65.9274 24.6751 65.9274 20.2016C65.9274 15.7281 64.3485 11.2546 61.5855 7.83364C64.0854 5.99161 67.2431 4.80745 70.664 4.80745C74.085 4.80745 77.2427 5.86004 79.7426 7.83364C76.9796 11.3861 75.4007 15.7281 75.4007 20.2016C75.4007 24.5435 76.848 29.017 79.7426 32.5695ZM83.032 29.2801C81.0583 26.6487 80.0058 23.3593 80.0058 20.07C80.0058 16.7806 81.0583 13.4913 83.032 10.8598C85.0056 13.4913 86.0581 16.7806 86.0581 20.07C86.0581 23.3593 85.0056 26.6487 83.032 29.2801ZM95.3999 35.4641C91.979 35.4641 88.8212 34.2799 86.3213 32.4379C89.0843 28.8854 90.6632 24.5435 90.6632 20.07C90.6632 15.5965 89.0843 11.123 86.3213 7.70207C88.8212 5.86004 92.1105 4.67588 95.3999 4.67588C103.952 4.67588 110.794 11.5177 110.794 20.07C110.794 28.6223 103.952 35.4641 95.3999 35.4641Z" fill="white"/>
</g>
<defs>
<clipPath id="clip0_1_521">
<rect width="114.469" height="40" fill="white" transform="translate(0.930054 0.0700684)"/>
</clipPath>
</defs>
</svg>
