<svg width="330" height="74" viewBox="0 0 330 74" fill="none" xmlns="http://www.w3.org/2000/svg">
<mask id="mask0_1_880" style="mask-type:luminance" maskUnits="userSpaceOnUse" x="0" y="9" width="330" height="57">
<path d="M0 9.09058H330V65.5792H0V9.09058Z" fill="white"/>
</mask>
<g mask="url(#mask0_1_880)">
<path d="M26.0572 9.09058H0.00456238V47.3269H17.8246V27.3429H26.0619C28.6503 27.3497 31.1303 28.4054 32.9583 30.2785C34.7863 32.1516 35.8131 34.6892 35.8135 37.3349C35.8131 39.9812 34.7859 42.5193 32.9572 44.3925C31.1285 46.2656 28.6476 47.321 26.0588 47.3269H17.8214V65.5792H26.0588C33.3778 65.5647 40.3922 62.5825 45.5625 57.2873C50.7329 51.992 53.6367 44.8163 53.6367 37.3349C53.6367 29.8533 50.7327 22.6773 45.562 17.382C40.3913 12.0866 33.3765 9.10468 26.0572 9.09058Z" fill="#185DB2"/>
<path d="M329.94 41.0104H319.526C319.659 41.9047 320.109 42.7145 320.787 43.2807C321.464 43.8468 322.321 44.1283 323.188 44.0698C323.866 44.0787 324.539 43.9406 325.164 43.6644C325.789 43.3881 326.352 42.9798 326.817 42.4652L329.246 44.7107C328.515 45.661 327.581 46.4197 326.518 46.9261C325.456 47.4325 324.294 47.6725 323.126 47.6268C322.093 47.6741 321.062 47.4982 320.098 47.1101C319.134 46.7221 318.257 46.1304 317.523 45.3721C316.789 44.6139 316.213 43.7055 315.832 42.7042C315.451 41.703 315.273 40.6304 315.31 39.554V39.4964C315.263 38.4506 315.419 37.4057 315.77 36.4245C316.12 35.4432 316.657 34.5458 317.348 33.7862C318.04 33.0265 318.872 32.4203 319.793 32.0038C320.715 31.5874 321.709 31.3693 322.713 31.3626C327.71 31.3626 330 35.4155 330 39.8423V39.9033C330 40.3399 329.973 40.6018 329.946 41.0104M322.715 34.9147C321.871 34.9384 321.068 35.2941 320.466 35.9104C319.863 36.5266 319.508 37.3576 319.47 38.236H325.863C325.856 37.3646 325.523 36.5305 324.935 35.9109C324.347 35.2913 323.55 34.9351 322.713 34.918M309.589 47.3929H305.738L299.846 31.646H304.339L307.691 42.1176L311.067 31.646H315.479L309.589 47.3929ZM294.234 26H298.702V29.9359H294.234V26ZM294.347 31.646H298.591V47.2759H294.347V31.646ZM288.624 47.5395C286.026 47.5395 284.266 46.4604 284.266 42.8474V35.4353H282.479V31.646H284.266V27.6541H288.51V31.646H292.036V35.4353H288.518V42.1093C288.518 43.1308 288.939 43.625 289.886 43.625C290.618 43.6277 291.34 43.4373 291.983 43.0715V46.6383C290.97 47.2626 289.808 47.5761 288.632 47.5428M273.693 47.6268C272.651 47.6657 271.612 47.4859 270.637 47.0981C269.662 46.7103 268.773 46.1225 268.02 45.3695C267.268 44.6165 266.669 43.7137 266.258 42.7147C265.847 41.7157 265.633 40.6409 265.629 39.554V39.4964C265.636 38.4023 265.853 37.3207 266.268 36.3155C266.683 35.3104 267.287 34.402 268.044 33.644C268.801 32.886 269.697 32.2937 270.677 31.9022C271.658 31.5106 272.704 31.3277 273.753 31.3643C274.796 31.3254 275.835 31.5052 276.81 31.893C277.784 32.2808 278.674 32.8686 279.426 33.6216C280.179 34.3746 280.778 35.2774 281.189 36.2764C281.6 37.2754 281.814 38.3502 281.818 39.4371V39.4964C281.811 40.5903 281.593 41.6717 281.178 42.6767C280.764 43.6817 280.16 44.5899 279.402 45.3477C278.645 46.1055 277.75 46.6977 276.769 47.0891C275.789 47.4805 274.743 47.6634 273.693 47.6268ZM277.629 39.4964C277.651 38.9417 277.565 38.3881 277.378 37.8685C277.19 37.3489 276.904 36.8738 276.537 36.4714C276.17 36.069 275.73 35.7475 275.241 35.526C274.752 35.3044 274.226 35.1873 273.693 35.1816C273.164 35.1743 272.64 35.281 272.152 35.4951C271.665 35.7092 271.225 36.026 270.86 36.4256C270.496 36.8253 270.215 37.2991 270.035 37.8173C269.854 38.3355 269.779 38.887 269.813 39.4371V39.4964C269.791 40.0509 269.877 40.6043 270.065 41.1237C270.252 41.6431 270.538 42.118 270.905 42.5202C271.272 42.9224 271.713 43.2438 272.202 43.4653C272.69 43.6868 273.216 43.8038 273.749 43.8095C274.278 43.8178 274.804 43.7117 275.292 43.498C275.78 43.2843 276.22 42.9676 276.585 42.5678C276.95 42.1681 277.232 41.6939 277.412 41.1753C277.593 40.6566 277.668 40.1046 277.634 39.554L277.629 39.4964ZM259.436 47.2759V38.5655C259.436 36.4666 258.545 35.3875 256.952 35.3875C255.36 35.3875 254.384 36.4666 254.384 38.5655V47.2759H250.14V38.5655C250.14 36.4666 249.248 35.3875 247.656 35.3875C246.063 35.3875 245.085 36.4666 245.085 38.5655V47.2759H240.844V31.646H245.085V33.8701C245.567 33.1075 246.222 32.4801 246.992 32.0432C247.762 31.6062 248.623 31.3731 249.5 31.3643C250.355 31.3123 251.207 31.5176 251.954 31.9557C252.701 32.3938 253.311 33.0463 253.712 33.8355C254.294 33.0584 255.041 32.4313 255.893 32.0027C256.745 31.5742 257.681 31.3557 258.627 31.3643C261.789 31.3643 263.687 33.3413 263.687 37.1042V47.2759H259.436ZM230.693 47.6268C229.651 47.6657 228.611 47.4859 227.637 47.0981C226.662 46.7103 225.773 46.1225 225.02 45.3695C224.268 44.6165 223.669 43.7137 223.258 42.7147C222.847 41.7157 222.633 40.6409 222.629 39.554V39.4964C222.636 38.4023 222.853 37.3208 223.267 36.3156C223.682 35.3105 224.286 34.4021 225.043 33.6441C225.8 32.886 226.695 32.2937 227.676 31.9022C228.656 31.5106 229.702 31.3277 230.752 31.3643C231.794 31.3252 232.834 31.5048 233.808 31.8925C234.783 32.2802 235.673 32.868 236.425 33.6211C237.178 34.3741 237.777 35.277 238.188 36.2761C238.598 37.2752 238.812 38.3502 238.816 39.4371V39.4964C238.809 40.5903 238.592 41.6716 238.177 42.6766C237.763 43.6815 237.159 44.5898 236.402 45.3476C235.645 46.1055 234.749 46.6976 233.769 47.0891C232.788 47.4805 231.743 47.6634 230.693 47.6268ZM234.631 39.4964C234.652 38.9416 234.567 38.3879 234.379 37.8682C234.192 37.3484 233.906 36.8733 233.538 36.4709C233.171 36.0684 232.73 35.747 232.241 35.5255C231.753 35.304 231.226 35.1871 230.693 35.1816C230.164 35.1745 229.64 35.2814 229.153 35.4956C228.665 35.7098 228.226 36.0267 227.861 36.4263C227.497 36.8259 227.216 37.2996 227.036 37.8177C226.856 38.3358 226.78 38.8871 226.814 39.4371V39.4964C226.793 40.0509 226.879 40.6043 227.066 41.1237C227.254 41.6431 227.54 42.118 227.907 42.5202C228.274 42.9224 228.715 43.2438 229.203 43.4653C229.691 43.6868 230.218 43.8038 230.75 43.8095C231.28 43.8175 231.805 43.7113 232.293 43.4975C232.781 43.2837 233.221 42.967 233.586 42.5673C233.951 42.1676 234.233 41.6936 234.413 41.175C234.594 40.6564 234.67 40.1045 234.635 39.554L234.631 39.4964ZM218.143 47.5395C215.545 47.5395 213.789 46.4604 213.789 42.8474V35.4353H212.002V31.646H213.789V27.6541H218.032V31.646H221.55V35.4353H218.032V42.1093C218.032 43.1308 218.449 43.625 219.4 43.625C220.131 43.6277 220.852 43.4373 221.493 43.0715V46.6383C220.481 47.2629 219.319 47.5765 218.143 47.5428M205.967 47.2792V45.0616C205.492 45.8234 204.843 46.4509 204.079 46.8884C203.315 47.3259 202.458 47.5597 201.586 47.5692C198.376 47.5692 196.506 45.3533 196.506 41.7683V31.646H200.748V40.3613C200.748 42.4586 201.697 43.5377 203.316 43.5377C204.936 43.5377 205.97 42.4586 205.97 40.3613V31.646H210.214V47.2759L205.967 47.2792ZM191.145 47.2792L189.36 42.7041H181.093L179.311 47.2759H174.928L183.308 26.7282H187.271L195.652 47.2759L191.145 47.2792ZM185.228 32.1221L182.633 38.7303H187.828L185.228 32.1221ZM161.302 51.94V45.0336C160.789 45.8284 160.094 46.4767 159.28 46.9194C158.465 47.362 157.557 47.5849 156.638 47.5675C153.148 47.5675 149.828 44.7124 149.828 39.4947V39.4354C149.828 34.2194 153.093 31.3626 156.638 31.3626C157.536 31.3444 158.426 31.5459 159.236 31.9507C160.046 32.3556 160.753 32.9526 161.302 33.6939V31.646H165.544V51.94H161.302ZM161.357 39.4371C161.404 38.902 161.346 38.3626 161.187 37.8517C161.027 37.3408 160.769 36.8691 160.429 36.4655C160.088 36.0618 159.673 35.7347 159.207 35.504C158.741 35.2734 158.235 35.144 157.72 35.1239C157.203 35.1412 156.695 35.2684 156.226 35.4978C155.758 35.7272 155.34 36.054 154.998 36.4579C154.655 36.8618 154.395 37.3345 154.234 37.8468C154.074 38.3591 154.015 38.9003 154.062 39.4371V39.4964C154.019 40.0324 154.08 40.572 154.242 41.0827C154.404 41.5934 154.664 42.0645 155.006 42.4676C155.348 42.8708 155.765 43.1975 156.231 43.4281C156.698 43.6588 157.204 43.7885 157.72 43.8095C158.235 43.7894 158.741 43.6601 159.207 43.4294C159.673 43.1988 160.088 42.8716 160.429 42.468C160.769 42.0643 161.027 41.5927 161.187 41.0818C161.346 40.5708 161.404 40.0314 161.357 39.4964V39.4371ZM148.39 41.0104H137.977C138.111 41.9035 138.559 42.7125 139.235 43.2788C139.911 43.8451 140.766 44.1278 141.632 44.0715C142.312 44.0815 142.986 43.9439 143.612 43.6677C144.238 43.3914 144.803 42.9825 145.269 42.4668L147.696 44.7124C146.966 45.6615 146.033 46.4195 144.971 46.9255C143.91 47.4316 142.749 47.6718 141.583 47.6268C140.55 47.6743 139.519 47.4986 138.554 47.1106C137.59 46.7227 136.713 46.131 135.978 45.3727C135.244 44.6145 134.668 43.706 134.287 42.7047C133.906 41.7033 133.729 40.6306 133.765 39.554V39.4964C133.718 38.4511 133.875 37.4068 134.225 36.4261C134.575 35.4454 135.112 34.5484 135.802 33.789C136.493 33.0296 137.324 32.4234 138.246 32.0068C139.167 31.5901 140.159 31.3716 141.164 31.3643C146.162 31.3643 148.45 35.4171 148.45 39.844V39.905C148.45 40.3415 148.422 40.6035 148.393 41.0121M141.164 34.9163C140.322 34.9424 139.52 35.2989 138.92 35.9145C138.319 36.53 137.964 37.3592 137.925 38.236H144.32C144.314 37.3613 143.98 36.5238 143.389 35.9026C142.798 35.2813 141.997 34.9255 141.157 34.9114M129.203 47.5395C126.606 47.5395 124.846 46.4604 124.846 42.8474V35.4353H123.061V31.646H124.846V27.6541H129.092V31.646H132.609V35.4353H129.092V42.1093C129.092 43.1308 129.51 43.625 130.46 43.625C131.192 43.6277 131.912 43.4372 132.554 43.0715V46.6383C131.541 47.2627 130.379 47.5763 129.203 47.5428M116.918 26.0033H121.383V29.9392H116.918V26.0033ZM117.029 31.646H121.273V47.2759H117.029V31.646ZM105.76 51.9993C103.46 52.0227 101.189 51.4629 99.1426 50.3683L100.594 47.0452C102.124 47.9932 103.874 48.4872 105.654 48.4736C108.559 48.4736 109.924 47.0156 109.924 44.2165V43.4586C109.369 44.2633 108.634 44.9149 107.783 45.357C106.932 45.7991 105.99 46.0183 105.039 45.9958C104.134 46.0067 103.236 45.8229 102.403 45.4558C101.569 45.0888 100.817 44.5464 100.193 43.8625C99.5698 43.1787 99.0886 42.3682 98.7796 41.4817C98.4707 40.5952 98.3407 39.6518 98.3978 38.7105V38.6479C98.3428 37.7072 98.4743 36.7647 98.784 35.8792C99.0937 34.9937 99.575 34.184 100.198 33.5007C100.821 32.8173 101.572 32.2748 102.405 31.907C103.238 31.5392 104.135 31.3539 105.039 31.3626C105.962 31.3418 106.876 31.5409 107.714 31.9446C108.551 32.3484 109.288 32.9461 109.87 33.6922V31.646H114.113V43.7436C114.113 49.6302 111.32 51.9927 105.765 51.9927M109.924 38.6479C109.926 38.1561 109.831 37.6692 109.645 37.217C109.46 36.7648 109.187 36.3569 108.845 36.0185C108.503 35.6801 108.097 35.4182 107.654 35.2491C107.211 35.0799 106.739 35.0071 106.268 35.0349C105.798 35.0074 105.328 35.0807 104.886 35.2503C104.445 35.4199 104.041 35.6822 103.701 36.021C103.361 36.3597 103.091 36.7677 102.908 37.2196C102.725 37.6714 102.634 38.1576 102.639 38.6479V38.7072C102.631 39.1983 102.721 39.6858 102.903 40.139C103.085 40.5922 103.354 41.0014 103.695 41.3408C104.036 41.6802 104.44 41.9426 104.883 42.1114C105.326 42.2802 105.797 42.3519 106.268 42.3218C106.739 42.3495 107.211 42.2764 107.654 42.107C108.097 41.9377 108.503 41.6757 108.845 41.3371C109.188 40.9986 109.46 40.5906 109.645 40.1383C109.831 39.6861 109.926 39.1991 109.924 38.7072V38.6479ZM91.9382 26H96.4053V29.9359H91.9382V26ZM92.0425 31.646H96.2852V47.2759H92.0425V31.646ZM79.1218 47.2759H71.5V26.8682H79.1218C85.2651 26.8682 89.5077 31.2687 89.5077 37.0103V37.0828C89.5077 42.8243 85.2635 47.2825 79.1218 47.2825M85.0137 37.0828C85.0543 36.265 84.9297 35.4475 84.6481 34.6831C84.3665 33.9186 83.9341 33.2242 83.3788 32.6448C82.8235 32.0653 82.1578 31.6137 81.4245 31.319C80.6912 31.0244 79.9067 30.8933 79.1218 30.9343H75.8011V43.2329H79.1218C79.904 43.2805 80.687 43.1558 81.4198 42.8669C82.1526 42.578 82.8187 42.1314 83.3746 41.5562C83.9306 40.981 84.3639 40.2902 84.6463 39.5287C84.9288 38.7673 85.0539 37.9524 85.0137 37.1371V37.0828Z" fill="black"/>
</g>
</svg>
