<svg width="250" height="60" viewBox="0 0 250 60" fill="none" xmlns="http://www.w3.org/2000/svg">
<path d="M20.0595 0.108398H0.410797V28.2918H13.8509V13.5476H20.0595C24.1162 13.5476 27.4321 16.8632 27.4321 20.9197C27.4321 24.9761 24.1162 28.2918 20.0595 28.2918H13.8509V41.731H20.0595C31.5241 41.731 40.8722 32.3835 40.8722 20.9197C40.8722 9.42057 31.5241 0.108398 20.0595 0.108398Z" fill="#3D5EAB"/>
<path d="M60.3798 28.2564H54.6298V13.5474H60.3798C65.0009 13.5474 68.211 16.722 68.211 20.8842V20.9195C68.211 25.0465 65.0009 28.2564 60.3798 28.2564ZM64.8245 20.9195C64.8245 18.3093 63.0254 16.4751 60.3798 16.4751H57.8752V25.3639H60.3798C63.0254 25.3639 64.8245 23.565 64.8245 20.9548V20.9195Z" fill="#010101"/>
<path d="M70.0453 15.7696V12.9478H73.3966V15.7696H70.0453ZM70.1159 28.2564V16.9689H73.326V28.2564H70.1159Z" fill="#010101"/>
<path d="M80.4517 31.6778C78.6174 31.6778 76.8889 31.2546 75.4778 30.5138L76.5714 28.1152C77.7355 28.7502 78.8996 29.1382 80.3812 29.1382C82.5683 29.1382 83.5913 28.08 83.5913 26.0694V25.505C82.6388 26.6338 81.6158 27.3392 79.9226 27.3392C77.2769 27.3392 74.9134 25.4345 74.9134 22.0835V22.0482C74.9134 18.6972 77.3475 16.7925 79.9226 16.7925C81.6511 16.7925 82.7094 17.5332 83.556 18.4856V17.0041H86.7661V25.7166C86.7308 29.9847 84.6496 31.6778 80.4517 31.6778ZM83.5913 22.0482C83.5913 20.4962 82.3919 19.438 80.8398 19.438C79.2876 19.438 78.0882 20.4962 78.0882 22.0482V22.0835C78.0882 23.6355 79.2524 24.6937 80.8398 24.6937C82.3919 24.6937 83.5913 23.6355 83.5913 22.0835V22.0482Z" fill="#010101"/>
<path d="M88.8474 15.7696V12.9478H92.1986V15.7696H88.8474ZM88.9532 28.2564V16.9689H92.1633V28.2564H88.9532Z" fill="#010101"/>
<path d="M98.1249 28.4681C96.1848 28.4681 94.8443 27.6921 94.8443 25.0818V19.7203H93.5038V16.969H94.8443V14.1118H98.0544V17.0042H100.7V19.7556H98.0544V24.588C98.0544 25.3287 98.3718 25.6815 99.0774 25.6815C99.6771 25.6815 100.206 25.5404 100.665 25.2935V27.8684C99.9593 28.2212 99.1832 28.4681 98.1249 28.4681Z" fill="#010101"/>
<path d="M112.553 23.7412H104.722C105.039 25.1874 106.062 25.9634 107.473 25.9634C108.531 25.9634 109.307 25.6107 110.225 24.7994L112.059 26.422C111.001 27.7271 109.484 28.5384 107.438 28.5384C104.051 28.5384 101.547 26.1751 101.547 22.7183V22.683C101.547 19.4731 103.84 16.8276 107.12 16.8276C110.895 16.8276 112.623 19.7553 112.623 22.9652V23.0005C112.623 23.2827 112.588 23.459 112.553 23.7412ZM107.12 19.3673C105.78 19.3673 104.933 20.3197 104.686 21.7659H109.519C109.307 20.3197 108.461 19.3673 107.12 19.3673Z" fill="#010101"/>
<path d="M122.289 31.6424V26.6689C121.513 27.7271 120.455 28.5031 118.761 28.5031C116.116 28.5031 113.611 26.4573 113.611 22.683V22.6477C113.611 18.8735 116.08 16.8276 118.761 16.8276C120.455 16.8276 121.513 17.6037 122.289 18.5208V17.0393H125.499V31.6777H122.289V31.6424ZM122.324 22.6125C122.324 20.743 121.09 19.5084 119.573 19.5084C118.091 19.5084 116.821 20.743 116.821 22.6125V22.6477C116.821 24.5172 118.091 25.7518 119.573 25.7518C121.054 25.7518 122.324 24.5172 122.324 22.6477V22.6125Z" fill="#010101"/>
<path d="M144.795 28.2562L143.454 24.9405H137.211L135.87 28.2562H132.554L138.869 13.4414H141.867L148.181 28.2562H144.795ZM140.315 17.3215L138.375 22.0834H142.29L140.315 17.3215Z" fill="#010101"/>
<path d="M155.942 28.2566V26.6693C155.201 27.6217 154.249 28.4682 152.626 28.4682C150.192 28.4682 148.781 26.8809 148.781 24.2707V17.0044H151.991V23.2831C151.991 24.7998 152.697 25.5758 153.931 25.5758C155.166 25.5758 155.942 24.7998 155.942 23.2831V17.0044H159.152V28.2919H155.942V28.2566Z" fill="#010101"/>
<path d="M165.114 28.4681C163.174 28.4681 161.833 27.6921 161.833 25.0818V19.7203H160.493V16.969H161.833V14.1118H165.043V17.0042H167.689V19.7556H165.043V24.588C165.043 25.3287 165.361 25.6815 166.066 25.6815C166.666 25.6815 167.195 25.5404 167.654 25.2935V27.8684C166.983 28.2212 166.207 28.4681 165.114 28.4681Z" fill="#010101"/>
<path d="M174.568 28.5384C171.075 28.5384 168.5 25.9634 168.5 22.7183V22.683C168.5 19.4379 171.111 16.8276 174.638 16.8276C178.131 16.8276 180.706 19.4026 180.706 22.6477V22.683C180.706 25.8929 178.095 28.5384 174.568 28.5384ZM177.531 22.6477C177.531 20.9899 176.331 19.5437 174.568 19.5437C172.733 19.5437 171.64 20.9546 171.64 22.6125V22.6477C171.64 24.3056 172.839 25.7518 174.603 25.7518C176.437 25.7518 177.531 24.3409 177.531 22.683V22.6477Z" fill="#010101"/>
<path d="M196.227 28.2564V21.9778C196.227 20.461 195.557 19.685 194.357 19.685C193.158 19.685 192.417 20.461 192.417 21.9778V28.2564H189.207V21.9778C189.207 20.461 188.537 19.685 187.338 19.685C186.138 19.685 185.397 20.461 185.397 21.9778V28.2564H182.187V16.969H185.397V18.5563C186.138 17.6039 187.091 16.7573 188.713 16.7573C190.195 16.7573 191.288 17.3922 191.888 18.5563C192.876 17.3922 194.04 16.7573 195.592 16.7573C197.956 16.7573 199.402 18.2035 199.402 20.8843V28.2212H196.227V28.2564Z" fill="#010101"/>
<path d="M206.986 28.5384C203.494 28.5384 200.919 25.9634 200.919 22.7183V22.683C200.919 19.4379 203.529 16.8276 207.057 16.8276C210.549 16.8276 213.124 19.4026 213.124 22.6477V22.683C213.089 25.8929 210.479 28.5384 206.986 28.5384ZM209.949 22.6477C209.949 20.9899 208.75 19.5437 206.986 19.5437C205.152 19.5437 204.058 20.9546 204.058 22.6125V22.6477C204.058 24.3056 205.258 25.7518 207.021 25.7518C208.856 25.7518 209.949 24.3409 209.949 22.683V22.6477Z" fill="#010101"/>
<path d="M218.204 28.4681C216.264 28.4681 214.923 27.6921 214.923 25.0818V19.7203H213.583V16.969H214.923V14.1118H218.133V17.0042H220.779V19.7556H218.133V24.588C218.133 25.3287 218.451 25.6815 219.156 25.6815C219.756 25.6815 220.285 25.5404 220.744 25.2935V27.8684C220.074 28.2212 219.298 28.4681 218.204 28.4681Z" fill="#010101"/>
<path d="M222.437 15.7696V12.9478H225.788V15.7696H222.437ZM222.543 28.2564V16.9689H225.753V28.2564H222.543Z" fill="#010101"/>
<path d="M234.008 28.3624H231.115L226.67 17.0044H230.057L232.597 24.5529L235.136 17.0044H238.452L234.008 28.3624Z" fill="#010101"/>
<path d="M249.353 23.7412H241.521C241.839 25.1874 242.862 25.9634 244.273 25.9634C245.331 25.9634 246.107 25.6107 247.024 24.7994L248.859 26.422C247.8 27.7271 246.284 28.5384 244.238 28.5384C240.851 28.5384 238.346 26.1751 238.346 22.7183V22.683C238.346 19.4731 240.639 16.8276 243.92 16.8276C247.695 16.8276 249.423 19.7553 249.423 22.9652V23.0005C249.388 23.2827 249.353 23.459 249.353 23.7412ZM243.885 19.3673C242.544 19.3673 241.698 20.3197 241.451 21.7659H246.284C246.072 20.3197 245.225 19.3673 243.885 19.3673Z" fill="#010101"/>
<path d="M60.7678 56.3696L60.4503 54.5707H57.1344L56.0408 56.3696H54.4534L59.5331 48.5742H60.6972L62.2494 56.3696H60.7678ZM59.7448 50.1615L57.7693 53.4419H60.2386L59.7448 50.1615Z" fill="#010101"/>
<path d="M68.7048 56.3696H67.4349L66.165 48.5742H67.576L68.3521 54.606H68.3874L71.8444 48.5742H73.3613L68.7048 56.3696Z" fill="#010101"/>
<path d="M72.1619 54.2179C72.1619 52.4895 73.4318 50.9375 75.3367 50.9375C76.8183 50.9375 77.9118 51.8546 77.9118 53.2303C77.9118 54.9939 76.6419 56.5107 74.7017 56.5107C73.2554 56.546 72.1619 55.5936 72.1619 54.2179ZM75.2661 52.031C74.1726 52.031 73.4318 53.0186 73.4318 54.1121C73.4318 54.8881 73.9257 55.4878 74.7723 55.4878C75.8658 55.4878 76.6066 54.5354 76.6066 53.4066C76.6066 52.5953 76.1128 52.031 75.2661 52.031Z" fill="#010101"/>
<path d="M78.6526 56.3694L80.099 48.0449H81.4042L79.9226 56.3694H78.6526Z" fill="#010101"/>
<path d="M84.967 56.3694L83.3091 53.6534H83.2738L82.7799 56.3694H81.51L82.9563 48.0449H84.2615L83.3443 53.3007H83.3796L85.7784 51.0784H87.4716L84.6848 53.5123L86.625 56.3342H84.967V56.3694Z" fill="#010101"/>
<path d="M87.7891 54.8527C88.0007 55.276 88.4593 55.5229 88.9885 55.5229C89.5882 55.5229 89.9762 55.276 89.9762 54.8527C89.9762 54.4647 89.694 54.3589 89.059 54.1473C88.0713 53.8298 87.5774 53.5123 87.5774 52.701C87.5774 51.6781 88.5652 50.9727 89.8704 50.9727C90.6817 50.9727 91.3872 51.2548 91.7753 51.8898L90.7875 52.4894C90.6111 52.2072 90.3289 51.9603 89.7998 51.9603C89.3412 51.9603 88.8826 52.1014 88.8826 52.5952C88.8826 52.948 89.1648 53.0538 89.7293 53.1949C90.717 53.4771 91.2814 53.9003 91.2814 54.7822C91.2814 55.9462 90.2231 56.5811 88.9885 56.5811C87.8596 56.5811 87.1894 56.1226 86.8014 55.5229L87.7891 54.8527Z" fill="#010101"/>
<path d="M98.1955 56.3696H96.8903L96.4317 52.6306H96.3964L94.4209 56.3696H93.1157L92.3749 51.0786H93.7154L94.0682 54.8529H94.1035L96.0084 51.0786H97.3488L97.7722 54.8529H97.8074L99.7123 51.0786H101.053L98.1955 56.3696Z" fill="#010101"/>
<path d="M104.651 52.701C104.651 52.1719 104.333 51.9956 103.663 51.9956C103.134 51.9956 102.57 52.2072 102.146 52.5247L101.652 51.6428C102.252 51.2196 103.064 50.9727 103.875 50.9727C104.898 50.9727 105.921 51.3959 105.921 52.56C105.921 52.7011 105.886 52.9127 105.886 53.0538L105.498 55.2055C105.427 55.6287 105.356 56.0873 105.356 56.4048H104.157C104.157 56.1931 104.192 55.9815 104.228 55.7698H104.192C103.769 56.2637 103.205 56.5106 102.464 56.5106C101.723 56.5106 100.806 56.1931 100.806 55.0996C100.806 53.3712 102.852 53.0538 104.58 53.0538C104.651 52.8774 104.651 52.8069 104.651 52.701ZM104.333 53.9709C103.346 53.9709 102.076 54.0767 102.076 54.888C102.076 55.3818 102.499 55.5582 102.922 55.5582C103.734 55.5582 104.298 54.9938 104.439 54.2884L104.51 53.9709H104.333Z" fill="#010101"/>
<path d="M111.6 51.925L111.741 51.1137H112.976L112.129 55.9462C111.812 57.8157 110.965 59.0503 108.849 59.0503C107.967 59.0503 106.909 58.7328 106.309 58.0979L107.156 57.1808C107.579 57.6746 108.214 57.9215 108.884 57.9215C110.189 57.9215 110.648 57.1455 110.859 56.0873L110.93 55.664H110.895C110.507 56.1578 109.872 56.4753 109.096 56.4753C107.755 56.4753 106.873 55.5582 106.873 54.2178C106.873 52.4189 108.073 50.9727 109.766 50.9727C110.718 50.9727 111.283 51.3607 111.6 51.925ZM109.484 55.4524C110.507 55.4524 111.318 54.5 111.318 53.3712C111.318 52.56 110.789 51.9956 109.978 51.9956C108.884 51.9956 108.179 52.9127 108.179 54.0767C108.179 54.8527 108.637 55.4524 109.484 55.4524Z" fill="#010101"/>
<path d="M114.916 54.1474C114.916 54.1827 114.916 54.2179 114.916 54.2532C114.916 54.9587 115.516 55.4525 116.292 55.4525C116.962 55.4525 117.421 55.2056 117.809 54.747L118.55 55.4525C117.915 56.158 117.103 56.5107 116.151 56.5107C114.74 56.5107 113.682 55.6641 113.682 54.1827C113.682 52.3837 114.987 50.9375 116.786 50.9375C118.056 50.9375 118.973 51.643 118.973 53.0539C118.973 53.3008 118.938 53.7594 118.832 54.1474H114.916ZM117.774 53.2303C117.774 53.1244 117.809 53.0539 117.809 52.9481C117.809 52.3837 117.386 51.9252 116.645 51.9252C115.728 51.9252 115.163 52.6659 115.057 53.2303H117.774Z" fill="#010101"/>
<path d="M121.76 51.925C122.113 51.3607 122.677 50.9727 123.488 50.9727C124.652 50.9727 125.217 51.7134 125.217 52.5952C125.217 52.7716 125.182 52.948 125.182 53.0891L124.582 56.3695H123.312L123.806 53.4771C123.841 53.3007 123.876 53.1243 123.876 52.948C123.876 52.4894 123.665 52.0661 122.994 52.0661C122.183 52.0661 121.689 52.7716 121.548 53.4771L121.019 56.3695H119.749L120.49 52.2425C120.525 51.9603 120.631 51.4665 120.666 51.1137H121.866C121.83 51.2901 121.76 51.6781 121.76 51.925Z" fill="#010101"/>
<path d="M134.388 55.0994L134.741 53.1241H133.083L133.295 51.9601H136.258L135.553 55.9812C134.777 56.3692 133.754 56.5809 132.766 56.5809C130.614 56.5809 129.168 55.2405 129.168 53.2299C129.168 50.5491 131.178 48.3975 133.754 48.3975C134.882 48.3975 135.941 48.7855 136.505 49.5968L135.447 50.408C135.094 49.9495 134.565 49.5968 133.718 49.5968C131.884 49.5968 130.579 51.3252 130.579 53.0888C130.579 54.4292 131.461 55.4169 132.977 55.4169C133.542 55.3816 133.965 55.311 134.388 55.0994Z" fill="#010101"/>
<path d="M139.08 51.9956C139.433 51.3959 139.927 50.9727 140.632 50.9727C140.738 50.9727 140.879 50.9727 140.95 51.0079L140.773 52.2072C140.597 52.172 140.491 52.1367 140.385 52.1367C139.186 52.1367 138.904 53.1596 138.833 53.5476L138.339 56.3695H137.069L137.81 52.2425C137.846 51.9603 137.951 51.4665 137.987 51.1137H139.186C139.151 51.2548 139.08 51.7487 139.08 51.9956Z" fill="#010101"/>
<path d="M140.915 54.2179C140.915 52.4895 142.184 50.9375 144.089 50.9375C145.571 50.9375 146.664 51.8546 146.664 53.2303C146.664 54.9939 145.395 56.5107 143.454 56.5107C142.008 56.546 140.915 55.5936 140.915 54.2179ZM144.019 52.031C142.925 52.031 142.184 53.0186 142.184 54.1121C142.184 54.8881 142.678 55.4878 143.525 55.4878C144.618 55.4878 145.359 54.5354 145.359 53.4066C145.359 52.5953 144.865 52.031 144.019 52.031Z" fill="#010101"/>
<path d="M151.039 55.5582C150.686 56.1226 150.122 56.5106 149.31 56.5106C148.146 56.5106 147.582 55.7699 147.582 54.888C147.582 54.7117 147.617 54.5353 147.617 54.3942L148.217 51.1138H149.487L148.993 54.0062C148.957 54.1826 148.922 54.3589 148.922 54.5353C148.922 54.9938 149.134 55.4171 149.804 55.4171C150.615 55.4171 151.109 54.7117 151.25 54.0062L151.78 51.1138H153.049L152.309 55.2408C152.273 55.5229 152.168 56.0168 152.132 56.3695H150.933C150.968 56.2284 151.003 55.8051 151.039 55.5582Z" fill="#010101"/>
<path d="M154.566 59.0149H153.261L154.672 51.1136H155.907L155.766 51.9602H155.801C156.224 51.3605 156.894 51.0078 157.706 51.0078C159.046 51.0078 159.928 51.9249 159.928 53.2653C159.928 55.0642 158.729 56.5457 157.036 56.5457C156.083 56.5457 155.483 56.1577 155.201 55.5581H155.166L154.566 59.0149ZM157.283 52.0307C156.26 52.0307 155.448 52.9831 155.448 54.1119C155.448 54.9232 155.977 55.4875 156.789 55.4875C157.882 55.4875 158.588 54.5704 158.588 53.4064C158.588 52.6304 158.129 52.0307 157.283 52.0307Z" fill="#010101"/>
<path d="M170.335 55.1699C169.735 55.946 168.712 56.5809 167.23 56.5809C165.149 56.5809 163.773 55.2405 163.773 53.2299C163.773 50.5491 165.784 48.3975 168.359 48.3975C169.488 48.3975 170.546 48.8913 171.005 49.5968L169.947 50.408C169.7 50.0553 169.17 49.5968 168.324 49.5968C166.49 49.5968 165.184 51.3252 165.184 53.0888C165.184 54.3587 165.96 55.4169 167.407 55.4169C168.183 55.4169 168.888 55.0994 169.453 54.4292L170.335 55.1699Z" fill="#010101"/>
<path d="M171.005 54.2179C171.005 52.4895 172.275 50.9375 174.18 50.9375C175.661 50.9375 176.755 51.8546 176.755 53.2303C176.755 54.9939 175.485 56.5107 173.545 56.5107C172.098 56.546 171.005 55.5936 171.005 54.2179ZM174.109 52.031C173.016 52.031 172.275 53.0186 172.275 54.1121C172.275 54.8881 172.769 55.4878 173.615 55.4878C174.709 55.4878 175.45 54.5354 175.45 53.4066C175.45 52.5953 174.956 52.031 174.109 52.031Z" fill="#010101"/>
<path d="M178.201 52.2425C178.236 51.9603 178.342 51.4665 178.377 51.1137H179.577C179.577 51.2901 179.506 51.7134 179.471 51.925H179.506C179.824 51.4312 180.318 50.9727 181.129 50.9727C182.011 50.9727 182.54 51.3959 182.716 51.9956C183.175 51.3607 183.775 50.9727 184.586 50.9727C185.821 50.9727 186.35 51.7134 186.35 52.5952C186.35 52.7716 186.315 52.948 186.315 53.0891L185.715 56.3695H184.445L184.939 53.4771C184.974 53.3007 185.009 53.1243 185.009 52.948C185.009 52.4894 184.798 52.0309 184.127 52.0309C183.316 52.0309 182.822 52.8069 182.716 53.4771L182.223 56.3695H180.917L181.482 53.1949C181.517 53.0891 181.517 52.9832 181.517 52.9127C181.517 52.4189 181.27 52.0661 180.706 52.0661C179.93 52.0661 179.436 52.8069 179.295 53.5123L178.766 56.4048H177.496L178.201 52.2425Z" fill="#010101"/>
<path d="M188.078 59.0149H186.773L188.184 51.1136H189.419L189.278 51.9602H189.313C189.736 51.3605 190.407 51.0078 191.218 51.0078C192.558 51.0078 193.44 51.9249 193.44 53.2653C193.44 55.0642 192.241 56.5457 190.548 56.5457C189.595 56.5457 188.996 56.1577 188.713 55.5581H188.678L188.078 59.0149ZM190.795 52.0307C189.772 52.0307 188.96 52.9831 188.96 54.1119C188.96 54.9232 189.489 55.4875 190.301 55.4875C191.394 55.4875 192.1 54.5704 192.1 53.4064C192.1 52.6304 191.641 52.0307 190.795 52.0307Z" fill="#010101"/>
<path d="M197.885 52.701C197.885 52.1719 197.568 51.9956 196.897 51.9956C196.368 51.9956 195.804 52.2072 195.38 52.5247L194.887 51.6428C195.486 51.2196 196.298 50.9727 197.109 50.9727C198.132 50.9727 199.155 51.3959 199.155 52.56C199.155 52.7011 199.12 52.9127 199.12 53.0538L198.732 55.2055C198.661 55.6287 198.591 56.0873 198.591 56.4048H197.391C197.391 56.1931 197.426 55.9815 197.462 55.7698H197.426C197.003 56.2637 196.439 56.5106 195.698 56.5106C194.957 56.5106 194.04 56.1931 194.04 55.0996C194.04 53.3712 196.086 53.0538 197.814 53.0538C197.885 52.8774 197.885 52.8069 197.885 52.701ZM197.568 53.9709C196.58 53.9709 195.31 54.0767 195.31 54.888C195.31 55.3818 195.733 55.5582 196.157 55.5582C196.968 55.5582 197.532 54.9938 197.673 54.2884L197.744 53.9709H197.568Z" fill="#010101"/>
<path d="M201.977 51.925C202.33 51.3607 202.894 50.9727 203.706 50.9727C204.87 50.9727 205.434 51.7134 205.434 52.5952C205.434 52.7716 205.399 52.948 205.399 53.0891L204.799 56.3695H203.529L204.023 53.4771C204.058 53.3007 204.094 53.1243 204.094 52.948C204.094 52.4894 203.882 52.0661 203.212 52.0661C202.4 52.0661 201.906 52.7716 201.765 53.4771L201.236 56.3695H199.966L200.707 52.2425C200.742 51.9603 200.848 51.4665 200.883 51.1137H202.083C202.048 51.2901 202.012 51.6781 201.977 51.925Z" fill="#010101"/>
<path d="M208.15 57.5335C207.586 58.4506 207.163 59.015 206.14 59.015C205.928 59.015 205.681 58.9797 205.469 58.9445L205.646 57.8157C205.822 57.8863 205.998 57.8863 206.14 57.8863C206.633 57.8863 206.845 57.6393 207.163 57.075L207.551 56.4048L206.351 51.1138H207.727L208.397 54.9938H208.433L210.549 51.1138H211.925L208.15 57.5335Z" fill="#010101"/>
</svg>
