<svg width="50" height="50" viewBox="0 0 50 50" fill="none" xmlns="http://www.w3.org/2000/svg">
<path id="Exclude" fill-rule="evenodd" clip-rule="evenodd" d="M25 50C38.8071 50 50 38.8071 50 25C50 11.1929 38.8071 0 25 0C11.1929 0 0 11.1929 0 25C0 38.8071 11.1929 50 25 50ZM24.1306 23.2909C23.3559 24.0782 23.366 25.3445 24.1532 26.1193L33.2558 35.0776C34.0431 35.8524 34.0532 37.1187 33.2784 37.906L29.7712 41.4696C28.9965 42.2569 27.7302 42.267 26.9429 41.4922L16.415 31.1311L16.4147 31.1311L16.4145 31.1311L11.4255 26.2212C10.6382 25.4464 10.6281 24.1801 11.4029 23.3928L26.1331 8.42546C26.9079 7.6382 28.1742 7.62809 28.9614 8.40287L32.5251 11.9101C33.3123 12.6848 33.3224 13.9511 32.5477 14.7384L24.1306 23.2909Z" fill="#E99C0E"/>
</svg>
