<svg width="50" height="50" viewBox="0 0 50 50" fill="none" xmlns="http://www.w3.org/2000/svg">
<path fill-rule="evenodd" clip-rule="evenodd" d="M25 -5.96046e-06C11.1929 -5.96046e-06 -5.96046e-06 11.1929 -5.96046e-06 25C-5.96046e-06 38.8071 11.1929 50 25 50C38.8071 50 50 38.8071 50 25C50 11.1929 38.8071 -5.96046e-06 25 -5.96046e-06ZM25.8693 26.7091C26.6441 25.9218 26.634 24.6555 25.8468 23.8807L16.7442 14.9224C15.9569 14.1476 15.9468 12.8813 16.7216 12.094L20.2288 8.53038C21.0035 7.74312 22.2698 7.733 23.0571 8.50779L33.585 18.8689L33.5853 18.8689L33.5855 18.8689L38.5745 23.7788C39.3618 24.5536 39.3719 25.8199 38.5971 26.6072L23.8669 41.5745C23.0921 42.3618 21.8258 42.3719 21.0386 41.5971L17.4749 38.0899C16.6877 37.3152 16.6776 36.0489 17.4523 35.2616L25.8693 26.7091Z" fill="#996300"/>
</svg>
