<?xml version="1.0" encoding="utf-8"?>
<!-- Generator: Adobe Illustrator 16.0.3, SVG Export Plug-In . SVG Version: 6.00 Build 0)  -->
<!DOCTYPE svg PUBLIC "-//W3C//DTD SVG 1.1//EN" "http://www.w3.org/Graphics/SVG/1.1/DTD/svg11.dtd">
<svg version="1.1" xmlns="http://www.w3.org/2000/svg" xmlns:xlink="http://www.w3.org/1999/xlink" x="0px" y="0px" width="100px"
	 height="100px" viewBox="0 0 100 100" enable-background="new 0 0 100 100" xml:space="preserve">
<g id="Vrstva_1" display="none">
</g>
<g id="Vrstva_2">
	<g id="_x30_2">
	</g>
	<g id="_x30_1">
	</g>
	<g id="_x30_4">
		<g>
			<path fill="#3A5DAE" d="M98.335,49.103L74.688,63.804c-1.978-1.458-10.82-7.97-14.053-10.276
				c-3.655-2.608-10.809-6.74-11.112-6.915c-0.113-0.065-0.238-0.097-0.361-0.097c-0.218,0-0.431,0.098-0.573,0.281
				c-0.009,0.012-0.929,1.202-2.874,3.8c-2.402,3.21-4.668,4.838-6.733,4.838c-0.674,0-1.344-0.18-1.999-0.531
				c-0.122-0.065-0.243-0.134-0.364-0.211c-0.374-0.24-0.59-0.559-0.679-1.005c-0.448-2.248,2.473-6.446,3.573-8.027l0.029-0.042
				c1.855-2.667,5.091-5.781,8.105-5.781h13.103l1.762,0.002c4.488,0,9.125-0.13,12.175-1.681c1.601-0.813,7.993-4.598,12.521-7.296
				l-1.166-1.912c-4.504,2.685-10.869,6.454-12.404,7.233c-2.595,1.319-6.919,1.429-11.126,1.429l-14.865-0.002
				c-3.589,0-6.738,2.868-8.484,4.848c-0.648-0.16-1.273-0.311-1.948-0.473c-1.375-0.33-3.445-0.827-3.843-1.042
				c-0.95-0.702-9.858-6.708-17.189-11.639l-1.251,1.86c7.255,4.88,16.278,10.962,17.071,11.558c0.572,0.429,1.92,0.765,4.672,1.426
				c0.569,0.137,1.183,0.285,1.822,0.442c-0.055,0.077-0.104,0.146-0.143,0.202l-0.029,0.042c-0.588,0.846-1.44,2.071-2.196,3.419
				c-1.066,1.902-1.94,4.047-1.607,5.717c0.166,0.835,0.609,1.488,1.317,1.941c1.006,0.644,2.063,0.97,3.143,0.97
				c2.498,0,5.101-1.759,7.74-5.22c0.051-0.067,0.102-0.13,0.152-0.198c1.222-1.633,2.037-2.707,2.474-3.279
				c1.776,1.037,7.425,4.365,10.446,6.521c2.964,2.115,10.667,7.783,13.426,9.815c0.322,0.239,0.587,0.435,0.779,0.574
				c1.072,0.777,1.713,1.66,1.854,2.552c0.101,0.638-0.044,1.281-0.43,1.915c-0.059,0.097-0.123,0.193-0.192,0.289
				c-0.5,0.687-1.281,1.035-2.32,1.035c-0.946,0-1.795-0.291-1.985-0.36l-12.712-7.329c-0.347-0.2-0.789-0.081-0.988,0.265
				c-0.125,0.216-0.125,0.47-0.024,0.678c0.061,0.125,0.159,0.235,0.29,0.31l12.646,7.291c0.224,0.301,0.902,1.403,0.118,2.861
				c-0.106,0.199-0.239,0.404-0.406,0.615c-0.573,0.728-1.309,1.081-2.249,1.081c-1.046,0-1.951-0.455-1.995-0.477L55.231,69.9
				c-0.346-0.198-0.789-0.078-0.987,0.27c-0.1,0.175-0.119,0.375-0.067,0.555c0.049,0.176,0.166,0.334,0.337,0.432l10.113,5.772
				c0.089,0.497,0.177,1.621-0.507,2.689c-0.039,0.061-0.077,0.122-0.121,0.183c-0.638,0.873-1.525,1.316-2.636,1.316
				c-0.778,0-1.406-0.22-1.528-0.266l-8.011-4.307c-0.351-0.189-0.791-0.058-0.98,0.294c-0.03,0.057-0.049,0.117-0.064,0.176
				c-0.073,0.312,0.064,0.645,0.359,0.804l7.396,3.977c-0.351,0.541-0.989,1.372-1.971,2.144c-0.036,0.028-0.07,0.057-0.108,0.085
				c-0.65,0.494-1.501,0.745-2.529,0.745c-1.408,0-3.097-0.455-5.02-1.352c-0.566-0.264-1.493-0.749-2.655-1.379l0.272-0.355
				c1.406-1.833,1.059-4.468-0.773-5.874c-0.738-0.566-1.619-0.866-2.547-0.866c-0.25,0-0.495,0.028-0.735,0.07
				c0.126-0.504,0.16-1.033,0.09-1.564c-0.146-1.109-0.715-2.096-1.603-2.776c-0.738-0.567-1.619-0.866-2.548-0.866
				c-0.25,0-0.495,0.028-0.736,0.071c0.391-1.57-0.148-3.295-1.511-4.341c-0.738-0.566-1.619-0.866-2.548-0.866
				c-1.048,0-2.028,0.385-2.789,1.067c-0.183-1.032-0.732-1.946-1.568-2.588c-0.739-0.567-1.62-0.866-2.549-0.866
				c-1.314,0-2.526,0.598-3.326,1.64l-0.204,0.266c-0.974-1.637-2.408-3.28-4.828-4.643c-3.619-2.039-10.854-5.828-16.585-8.802
				L0.42,52.741c5.75,2.982,13.126,6.844,16.793,8.909c1.732,0.975,3.004,2.192,3.968,3.804l-0.711,0.929
				c-0.822,1.071-1.178,2.399-1.001,3.738c0.176,1.34,0.863,2.53,1.935,3.353c0.663,0.509,1.422,0.839,2.229,0.975
				c-0.404,1.873,0.286,3.868,1.863,5.079c0.891,0.684,1.955,1.045,3.076,1.045c0.471,0,0.939-0.067,1.391-0.197
				c0.312,0.969,0.909,1.821,1.734,2.455c0.891,0.684,1.955,1.045,3.076,1.045c0.471,0,0.94-0.067,1.392-0.197
				c0.311,0.97,0.909,1.822,1.734,2.455c0.891,0.684,1.955,1.045,3.077,1.045c1.586,0,3.049-0.721,4.015-1.979l0.608-0.794
				c1.052,0.565,1.817,0.959,2.329,1.198c2.23,1.041,4.249,1.569,5.998,1.569c1.545,0,2.868-0.409,3.93-1.217
				c1.126-0.855,1.911-1.779,2.428-2.522c0.361,0.058,0.721,0.087,1.076,0.087c1.867,0,3.424-0.783,4.507-2.264
				c0.646-0.883,0.94-1.801,1.06-2.591c0.227,0.025,0.451,0.037,0.672,0.037c1.648,0,3.055-0.679,4.067-1.964
				c0.991-1.258,1.277-2.461,1.266-3.449c1.785-0.005,3.226-0.692,4.169-1.987c0.892-1.225,1.251-2.584,1.038-3.929
				c-0.127-0.803-0.455-1.571-0.977-2.293L99.58,51.144L98.335,49.103z M24.481,72.114c-0.607,0-1.184-0.196-1.667-0.567
				c-0.581-0.446-0.954-1.091-1.049-1.817c-0.096-0.727,0.098-1.446,0.544-2.028l2.221-2.901c0.523-0.682,1.317-1.073,2.177-1.073
				c0.607,0,1.184,0.196,1.667,0.567c0.581,0.446,0.954,1.091,1.049,1.817c0.096,0.727-0.098,1.446-0.544,2.028l-1.077,1.407
				l-1.157,1.509C26.122,71.729,25.334,72.114,24.481,72.114z M30.75,77.094c-0.523,0.682-1.317,1.073-2.178,1.073
				c-0.607,0-1.184-0.196-1.667-0.566c0,0,0,0,0,0c-1.199-0.921-1.426-2.646-0.505-3.846l1.397-1.822
				c0.003-0.004,0.006-0.007,0.01-0.011l0.924-1.208l2.704-3.526c0.523-0.682,1.317-1.072,2.178-1.072
				c0.607,0,1.184,0.196,1.667,0.567l0,0c1.2,0.92,1.426,2.646,0.505,3.845l-0.698,0.91c-0.001,0.002-0.003,0.004-0.005,0.007
				l-2.208,2.88L30.75,77.094z M36.952,80.397c-0.523,0.682-1.317,1.074-2.178,1.074c-0.607,0-1.183-0.196-1.667-0.567c0,0,0,0,0,0
				c-1.199-0.92-1.426-2.646-0.505-3.845l0.881-1.149l2.753-3.591c0.523-0.677,1.314-1.065,2.172-1.065
				c0.607,0,1.184,0.196,1.667,0.567c0.581,0.446,0.954,1.091,1.049,1.817c0.096,0.726-0.097,1.446-0.543,2.027l-0.699,0.912
				c-0.001,0.002-0.003,0.003-0.004,0.005l-0.688,0.899L36.952,80.397z M45.376,80.8l-2.222,2.901
				c-0.523,0.682-1.317,1.073-2.178,1.073c-0.607,0-1.184-0.196-1.667-0.567c-0.581-0.446-0.954-1.091-1.049-1.817
				c-0.096-0.727,0.097-1.446,0.543-2.028l1.745-2.278l0.48-0.626c0.523-0.68,1.316-1.07,2.175-1.07
				c0.607,0,1.183,0.196,1.667,0.567l0,0C46.07,77.875,46.297,79.6,45.376,80.8z"/>
			<path fill="#BCD4F0" d="M23.178,64.187l0.204-0.266c0.8-1.042,2.012-1.64,3.326-1.64c0.929,0,1.81,0.299,2.549,0.866
				c0.836,0.642,1.385,1.557,1.568,2.588c0.761-0.682,1.74-1.067,2.789-1.067c0.929,0,1.81,0.3,2.548,0.866
				c1.363,1.046,1.902,2.771,1.511,4.341c0.241-0.042,0.486-0.071,0.736-0.071c0.929,0,1.81,0.299,2.548,0.866
				c0.887,0.681,1.457,1.667,1.603,2.776c0.07,0.531,0.036,1.06-0.09,1.564c0.24-0.042,0.485-0.07,0.735-0.07
				c0.928,0,1.809,0.299,2.547,0.866c1.833,1.406,2.179,4.042,0.773,5.874l-0.272,0.355c1.163,0.631,2.089,1.115,2.655,1.379
				c1.922,0.897,3.611,1.352,5.02,1.352c1.028,0,1.879-0.25,2.529-0.745c0.038-0.028,0.072-0.057,0.108-0.085
				c-0.526-0.248-1.301-0.625-2.405-1.191c-2.5-1.282-4.283-3.266-3.379-5.733c0.015-0.06,0.034-0.119,0.064-0.176
				c0.189-0.353,0.629-0.484,0.98-0.294l8.011,4.307c0.122,0.045,0.75,0.266,1.528,0.266c1.111,0,1.998-0.443,2.636-1.316
				c0.044-0.061,0.082-0.122,0.121-0.183c-1.362-0.769-4.498-2.526-6.448-3.526c-2.375-1.218-4.104-3.069-3.495-5.366
				c-0.051-0.181-0.033-0.38,0.067-0.555c0.198-0.348,0.641-0.468,0.987-0.27l10.374,5.92c0.044,0.022,0.949,0.477,1.995,0.477
				c0.94,0,1.676-0.354,2.249-1.081c0.167-0.211,0.299-0.416,0.406-0.615c-1.877-1.044-7.43-4.124-9.532-5.201
				c-2.339-1.2-4.049-3.012-3.521-5.261c-0.101-0.208-0.101-0.462,0.024-0.678c0.199-0.346,0.642-0.465,0.988-0.265l12.712,7.329
				c0.19,0.07,1.039,0.36,1.985,0.36c1.039,0,1.82-0.349,2.32-1.035c0.07-0.096,0.133-0.192,0.192-0.289
				c-3.738-2.353-23.54-14.81-28.701-17.899c-2.639,3.461-5.242,5.22-7.74,5.22c-1.08,0-2.137-0.327-3.143-0.97
				c-0.708-0.454-1.151-1.106-1.317-1.941c-0.333-1.669,0.541-3.815,1.607-5.717c-2.479-0.576-4.857-1.21-6.655-2.193
				c-2.521-1.378-10.748-6.553-17.339-10.737L1.765,50.742c5.731,2.974,12.966,6.763,16.585,8.802
				C20.77,60.907,22.204,62.549,23.178,64.187z"/>
			<path fill="#FFFFFF" d="M60.722,69.4c2.103,1.077,7.655,4.157,9.532,5.201c0.784-1.458,0.105-2.56-0.118-2.861L57.491,64.45
				c-0.13-0.075-0.229-0.185-0.29-0.31C56.673,66.388,58.383,68.201,60.722,69.4z"/>
			<path fill="#FFFFFF" d="M57.672,76.091c1.951,1,5.086,2.758,6.448,3.526c0.684-1.068,0.596-2.192,0.507-2.689l-10.113-5.772
				c-0.171-0.098-0.288-0.255-0.337-0.432C53.568,73.022,55.296,74.873,57.672,76.091z"/>
			<path fill="#FFFFFF" d="M54.159,82.747c1.104,0.566,1.879,0.943,2.405,1.191c0.982-0.771,1.62-1.603,1.971-2.144l-7.396-3.977
				c-0.295-0.159-0.432-0.492-0.359-0.804C49.876,79.481,51.659,81.464,54.159,82.747z"/>
			<path fill="#FFFFFF" d="M36.13,48.254c0.756-1.348,1.608-2.573,2.196-3.419l0.029-0.042c0.039-0.055,0.088-0.125,0.143-0.202
				c-0.64-0.157-1.253-0.305-1.822-0.442c-2.752-0.661-4.101-0.997-4.672-1.426c-0.793-0.595-9.816-6.677-17.071-11.558
				l-2.797,4.158c6.591,4.184,14.817,9.359,17.339,10.737C31.273,47.043,33.652,47.678,36.13,48.254z"/>
			<path fill="#FFFFFF" d="M75.854,67.646c-0.141-0.892-0.782-1.774-1.854-2.552c-0.192-0.139-0.457-0.334-0.779-0.574
				c-2.759-2.032-10.462-7.7-13.426-9.815c-3.021-2.156-8.67-5.484-10.446-6.521c-0.437,0.573-1.252,1.646-2.474,3.279
				c-0.051,0.068-0.102,0.131-0.152,0.198c5.162,3.089,24.963,15.546,28.701,17.899C75.81,68.927,75.955,68.284,75.854,67.646z"/>
			<path fill="#BCD4F0" d="M63.858,43.17c-4.32,0-12.39,0-15.808,0c-3.418,0-5.602,3.038-6.694,4.842
				c-0.873,1.442-3.396,5.375-4.371,6.892c0.654,0.351,1.325,0.531,1.999,0.531c2.065,0,4.331-1.628,6.733-4.838
				c1.944-2.599,2.864-3.788,2.874-3.8c0.142-0.183,0.355-0.281,0.573-0.281c0.123,0,0.248,0.032,0.361,0.097
				c0.303,0.175,7.457,4.307,11.112,6.915c3.233,2.307,12.075,8.818,14.053,10.276l23.647-14.701l-9.601-15.741
				c-3.831,2.294-9.027,5.414-12.007,7.236C71.6,43.73,68.178,43.17,63.858,43.17z"/>
			<path fill="#FFFFFF" d="M62.514,39.84l-1.762-0.002H47.649c-3.014,0-6.25,3.114-8.105,5.781l-0.029,0.042
				c-1.1,1.581-4.021,5.779-3.573,8.027c0.089,0.446,0.305,0.766,0.679,1.005c0.121,0.077,0.242,0.146,0.364,0.211
				c0.975-1.518,3.498-5.45,4.371-6.892c1.092-1.804,3.276-4.842,6.694-4.842c3.418,0,11.488,0,15.808,0
				c4.32,0,7.742,0.56,12.869-2.573c2.98-1.822,8.177-4.941,12.007-7.236l-1.524-2.499c-4.528,2.698-10.92,6.483-12.521,7.296
				C71.638,39.71,67.001,39.84,62.514,39.84z"/>
			<path fill="#BCD4F0" d="M35.082,71.444c0.002-0.002,0.004-0.004,0.005-0.007l0.698-0.91c0.921-1.2,0.694-2.925-0.505-3.845
				l-8.375,10.918c0,0,0,0,0,0c0.483,0.37,1.06,0.566,1.667,0.566c0.861,0,1.655-0.391,2.178-1.073l2.124-2.77L35.082,71.444z"/>
			<path fill="#BCD4F0" d="M39.877,76.581c0.001-0.001,0.003-0.003,0.004-0.005l0.699-0.912c0.446-0.582,0.639-1.302,0.543-2.027
				c-0.095-0.727-0.468-1.372-1.049-1.817l-6.968,9.084c0,0,0,0,0,0c0.483,0.371,1.06,0.567,1.667,0.567
				c0.861,0,1.655-0.392,2.178-1.074l2.237-2.918L39.877,76.581z"/>
			<path fill="#BCD4F0" d="M44.87,76.955l-5.561,7.252c0.483,0.371,1.06,0.567,1.667,0.567c0.861,0,1.654-0.391,2.178-1.073
				l2.222-2.901C46.297,79.6,46.07,77.875,44.87,76.955z"/>
			<path fill="#BCD4F0" d="M26.646,71.056l1.157-1.509l1.077-1.407c0.446-0.582,0.64-1.301,0.544-2.028
				c-0.096-0.726-0.468-1.372-1.049-1.817l-5.561,7.252c0.484,0.371,1.06,0.567,1.667,0.567
				C25.334,72.114,26.122,71.729,26.646,71.056z"/>
			<path fill="#FFFFFF" d="M35.28,66.682c-0.483-0.371-1.06-0.567-1.667-0.567c-0.861,0-1.654,0.391-2.178,1.072l-2.704,3.526
				l-0.924,1.208c-0.003,0.004-0.007,0.007-0.01,0.011L26.4,73.755c-0.92,1.199-0.694,2.924,0.505,3.846L35.28,66.682L35.28,66.682z
				"/>
			<path fill="#FFFFFF" d="M38.408,71.252c-0.857,0-1.648,0.389-2.172,1.065l-2.753,3.591l-0.881,1.149
				c-0.921,1.2-0.694,2.925,0.505,3.845l6.968-9.084C39.592,71.448,39.015,71.252,38.408,71.252z"/>
			<path fill="#FFFFFF" d="M44.87,76.955c-0.483-0.371-1.06-0.567-1.667-0.567c-0.859,0-1.652,0.39-2.175,1.07l-0.48,0.626
				l-1.745,2.278c-0.446,0.582-0.639,1.301-0.543,2.028c0.095,0.726,0.468,1.372,1.049,1.817L44.87,76.955L44.87,76.955z"/>
			<path fill="#FFFFFF" d="M26.707,63.728c-0.86,0-1.654,0.391-2.177,1.073l-2.221,2.901c-0.446,0.582-0.64,1.302-0.544,2.028
				c0.095,0.726,0.468,1.372,1.049,1.817l5.561-7.252C27.891,63.924,27.314,63.728,26.707,63.728z"/>
		</g>
	</g>
</g>
</svg>
