<?xml version="1.0" encoding="utf-8"?>
<!-- Generator: Adobe Illustrator 16.0.3, SVG Export Plug-In . SVG Version: 6.00 Build 0)  -->
<!DOCTYPE svg PUBLIC "-//W3C//DTD SVG 1.1//EN" "http://www.w3.org/Graphics/SVG/1.1/DTD/svg11.dtd">
<svg version="1.1" xmlns="http://www.w3.org/2000/svg" xmlns:xlink="http://www.w3.org/1999/xlink" x="0px" y="0px" width="100px"
	 height="100px" viewBox="0 0 100 100" enable-background="new 0 0 100 100" xml:space="preserve">
<g id="Vrstva_1" display="none">
</g>
<g id="Vrstva_2">
	<g id="_x30_2">
	</g>
	<g id="_x30_1">
		<g>
			<path fill="#3A5DAE" d="M46.884,18.931h5.064c0.26-0.983,1.051-2.171,1.333-2.55c0.646-0.867,1.026-1.962,1.026-3.148
				c0-2.837-2.19-5.137-4.892-5.137s-4.892,2.299-4.892,5.137c0,1.187,0.38,2.282,1.026,3.148
				C45.833,16.76,46.624,17.948,46.884,18.931z"/>
			<path fill="none" d="M30.32,36.322c3.045,0,5.522-2.478,5.522-5.522s-2.478-5.522-5.522-5.522c-3.045,0-5.523,2.477-5.523,5.522
				S27.274,36.322,30.32,36.322z"/>
			<rect x="46.97" y="20.378" fill="#3A5DAE" width="4.892" height="0.92"/>
			<rect x="46.97" y="22.746" fill="#3A5DAE" width="4.89" height="0.947"/>
			<polygon fill="#BCD4F0" points="9.198,71.814 9.198,72.364 9.198,72.364 			"/>
			<path fill="#BCD4F0" d="M68.026,82.394l0.12-0.021c3.141-0.54,5.036-0.865,7.709-2.99l0.008-0.007L87.41,67.198
				c0.986-0.962,2.457-2.783,1.232-4.163c-0.021-0.025-0.048-0.044-0.072-0.066c-0.122,0.191-0.278,0.365-0.472,0.507L71.397,75.763
				c-0.323,0.237-0.713,0.366-1.115,0.366H47.759c-1.039,0-1.881-0.842-1.881-1.881c0-0.619,0.3-1.167,0.762-1.51
				c-0.283-0.254-0.347-0.586-0.357-0.773c-0.019-0.323,0.065-1.096,1.253-1.275c0.19-0.029,0.474-0.064,0.85-0.108
				c0.718-0.083,2.4-0.202,4.529-0.352c2.927-0.207,6.57-0.463,9.644-0.76c2.767-0.268,4.204-1.714,4.193-3.004
				c-0.003-0.411-0.148-0.789-0.414-1.118c-0.335,0.516-0.916,0.858-1.577,0.858H42.246c-3.132,0-4.524,1.607-6.452,3.832
				c-2.125,2.453-4.77,5.504-10.322,5.724c-7.674,0.303-14.26,0.356-16.274,0.365v15.777l20.038-3.812
				C29.601,88.039,65.748,82.781,68.026,82.394z"/>
			<path fill="#FFFFFF" d="M45.878,74.248c0,1.039,0.842,1.881,1.881,1.881h22.523c0.401,0,0.792-0.128,1.115-0.366l16.701-12.287
				c0.194-0.143,0.351-0.316,0.472-0.507c-0.745-0.678-2.589-0.173-3.527,0.536c-1.776,1.343-12.529,8.238-14.148,9.274
				l-0.216,0.303l-21.914,0.012l-0.022-0.008c-0.056,0.006-0.123,0.011-0.196,0.011c-0.389,0-0.679-0.003-0.873-0.01
				c-0.506-0.018-0.828-0.163-1.034-0.349C46.179,73.081,45.878,73.628,45.878,74.248z"/>
			<path fill="#FFFFFF" d="M9.198,76.126c2.014-0.009,8.6-0.062,16.274-0.365c5.552-0.219,8.197-3.271,10.322-5.724
				c1.927-2.225,3.32-3.832,6.452-3.832h22.515c0.661,0,1.242-0.342,1.577-0.858c-0.583-0.724-1.749-1.218-3.286-1.34
				c-2.563-0.205-15.692-0.342-18.433-0.342c-6.615,0-10.567,2.954-11.86,4.7c-2.138,2.887-5.972,4.477-10.794,4.477
				c-4.405,0-12.683,0.128-12.766,0.13v-0.608c-0.002,0,0.003,0,0,0"/>
			<path fill="#3A5DAE" d="M9.198,91.904l20.038-3.812c0.365-0.053,36.512-5.311,38.791-5.698l0.12-0.021
				c3.141-0.54,5.036-0.865,7.709-2.99l0.008-0.007L87.41,67.198c0.986-0.962,2.457-2.783,1.232-4.163
				c-0.021-0.025-0.048-0.044-0.072-0.066c-0.745-0.678-2.589-0.173-3.527,0.536c-1.776,1.343-12.529,8.238-14.148,9.274
				l-0.216,0.303l-21.914,0.012l-0.022-0.008c-0.056,0.006-0.123,0.011-0.196,0.011c-0.389,0-0.679-0.003-0.873-0.01
				c-0.506-0.018-0.828-0.163-1.034-0.349c-0.283-0.254-0.347-0.586-0.357-0.773c-0.019-0.323,0.065-1.096,1.253-1.275
				c0.19-0.029,0.474-0.064,0.85-0.108c0.718-0.083,2.4-0.202,4.529-0.352c2.927-0.207,6.57-0.463,9.644-0.76
				c2.767-0.268,4.204-1.714,4.193-3.004c-0.003-0.411-0.148-0.789-0.414-1.118c-0.583-0.724-1.749-1.218-3.286-1.34
				c-2.563-0.205-15.692-0.342-18.433-0.342c-6.615,0-10.567,2.954-11.86,4.7c-2.138,2.887-5.972,4.477-10.794,4.477
				c-4.405,0-12.683,0.128-12.766,0.13v-0.608v-0.55v-1.157c0.083-0.001,8.343-0.13,12.766-0.13c4.071,0,7.243-1.257,8.934-3.539
				c1.926-2.601,6.675-5.637,13.721-5.637c2.854,0,15.949,0.135,18.618,0.349c4.276,0.341,5.813,2.77,5.83,4.746
				c0.013,1.542-0.885,3.252-2.823,4.323l3.5-0.002c1.86-1.192,12.249-7.858,13.904-9.109c0.518-0.391,1.177-0.732,1.892-0.97
				c0.783-0.26,1.631-0.395,2.436-0.324c0.911,0.08,1.765,0.42,2.399,1.135c1.793,2.023,1.296,4.766-1.331,7.339l-11.669,12.31
				l-0.131,0.088c-3.111,2.458-5.46,2.861-8.705,3.418l-0.122,0.021c-2.296,0.391-37.006,5.439-38.822,5.704l-20.396,3.84V91.904z"
				/>
			<path fill="#3A5DAE" d="M41.342,48.993l1.466,0.096c0.175,0.862,0.516,1.665,0.987,2.374l-0.971,1.107
				c-0.277,0.278-0.347,0.657-0.156,0.848l1.074,1.074c0.19,0.192,0.57,0.122,0.847-0.156l1.107-0.971
				c0.709,0.471,1.512,0.812,2.375,0.987l0.096,1.466c0,0.391,0.219,0.71,0.489,0.71h1.52c0.27,0,0.489-0.319,0.489-0.71
				l0.096-1.466c0.862-0.175,1.665-0.517,2.374-0.987l1.107,0.971c0.277,0.277,0.657,0.348,0.848,0.156l1.074-1.074
				c0.191-0.191,0.122-0.57-0.156-0.848l-0.971-1.107c0.47-0.709,0.812-1.511,0.986-2.374l1.466-0.096
				c0.392,0,0.71-0.219,0.71-0.489v-1.519c0-0.27-0.318-0.489-0.71-0.489l-1.466-0.096c-0.175-0.862-0.516-1.665-0.986-2.374
				l0.971-1.107c0.277-0.278,0.347-0.657,0.156-0.848l-1.074-1.074c-0.19-0.191-0.571-0.121-0.848,0.156l-1.106,0.971
				c-0.709-0.471-1.512-0.812-2.375-0.987l-0.096-1.466c0-0.392-0.219-0.709-0.489-0.709h-1.52c-0.27,0-0.489,0.318-0.489,0.709
				l-0.096,1.466c-0.862,0.175-1.665,0.516-2.375,0.987l-1.107-0.971c-0.277-0.277-0.657-0.348-0.847-0.156l-1.074,1.074
				c-0.191,0.19-0.122,0.57,0.156,0.848l0.971,1.107c-0.471,0.709-0.812,1.511-0.987,2.374l-1.466,0.096
				c-0.392,0-0.709,0.219-0.709,0.489v1.519C40.633,48.774,40.95,48.993,41.342,48.993z M45.187,47.744
				c0-2.332,1.897-4.229,4.229-4.229s4.229,1.897,4.229,4.229c0,2.333-1.897,4.229-4.229,4.229S45.187,50.076,45.187,47.744z"/>
			<path fill="#FFFFFF" d="M49.416,51.973c2.332,0,4.229-1.896,4.229-4.229c0-2.332-1.897-4.229-4.229-4.229
				s-4.229,1.897-4.229,4.229C45.187,50.076,47.084,51.973,49.416,51.973z"/>
			<g>
				<path fill="#FFFFFF" d="M30.32,25.277c-3.045,0-5.523,2.477-5.523,5.522s2.478,5.522,5.523,5.522
					c3.045,0,5.522-2.478,5.522-5.522S33.365,25.277,30.32,25.277z"/>
				<path fill="#3A5DAE" d="M30.32,22.962c-4.322,0-7.838,3.516-7.838,7.837c0,1.875,0.663,3.598,1.765,4.949l-5.749,5.749
					l1.637,1.637l5.825-5.824c1.247,0.838,2.747,1.328,4.36,1.328c4.322,0,7.838-3.516,7.838-7.838
					C38.158,26.478,34.642,22.962,30.32,22.962z M30.32,36.322c-3.045,0-5.523-2.478-5.523-5.522s2.478-5.522,5.523-5.522
					c3.045,0,5.522,2.477,5.522,5.522S33.365,36.322,30.32,36.322z"/>
			</g>
			<g>
				<rect x="46.97" y="20.378" fill="#FFFFFF" width="4.891" height="0.92"/>
				<rect x="46.97" y="22.746" fill="#FFFFFF" width="4.89" height="0.947"/>
				<path fill="#FFFFFF" d="M49.416,8.096c-2.702,0-4.892,2.299-4.892,5.137c0,1.187,0.38,2.282,1.026,3.148
					c0.283,0.379,1.073,1.567,1.333,2.55h5.064c0.26-0.983,1.051-2.171,1.333-2.55c0.646-0.867,1.026-1.962,1.026-3.148
					C54.308,10.395,52.118,8.096,49.416,8.096z"/>
				<path fill="#3A5DAE" d="M49.416,5.781c-3.974,0-7.208,3.343-7.208,7.452c0,1.661,0.514,3.228,1.485,4.532
					c0.417,0.561,0.893,1.445,0.961,1.786v4.143c0,1.278,1.037,2.315,2.315,2.315h0.656c0.07,0.928,0.844,1.66,1.79,1.66
					s1.72-0.732,1.79-1.66h0.653c1.278,0,2.314-1.035,2.315-2.313l0.003-4.144c0.068-0.34,0.543-1.225,0.961-1.786
					c0.972-1.304,1.485-2.871,1.485-4.532C56.624,9.124,53.39,5.781,49.416,5.781z M51.859,23.692h-4.89v-0.947h4.89L51.859,23.692z
					 M51.861,21.298H46.97v-0.92h4.892L51.861,21.298z M53.282,16.381c-0.283,0.379-1.073,1.567-1.333,2.55h-5.064
					c-0.26-0.983-1.051-2.171-1.333-2.55c-0.646-0.867-1.026-1.962-1.026-3.148c0-2.837,2.19-5.137,4.892-5.137
					s4.892,2.299,4.892,5.137C54.308,14.419,53.928,15.514,53.282,16.381z"/>
			</g>
			<path fill="#FFFFFF" d="M63.579,28.241c-0.675,2.013-0.729,3.811,0.875,5.415c1.127,1.127,2.604,1.689,4.08,1.689
				c0.967,0,1.935-0.241,2.804-0.723c0.085,0.237,0.221,0.461,0.411,0.651l6.571,6.571c0.345,0.345,0.796,0.517,1.248,0.517
				c0.452,0,0.903-0.172,1.248-0.517c0.689-0.689,0.689-1.806,0-2.495l-6.571-6.571c-0.19-0.19-0.414-0.326-0.651-0.412
				c1.218-2.197,0.898-5.019-0.966-6.884c-0.953-0.953-1.974-1.32-3.068-1.32c-0.748,0-1.529,0.172-2.347,0.446L70.604,28
				l-0.516,3.171l-3.118,0.462L63.579,28.241z"/>
			<path fill="#3A5DAE" d="M68.534,37.66c0.698,0,1.391-0.09,2.062-0.267l6.088,6.088c0.771,0.771,1.795,1.195,2.884,1.195
				c1.09,0,2.114-0.424,2.885-1.195c1.59-1.591,1.59-4.179,0-5.77l-6.089-6.088c0.711-2.731-0.044-5.724-2.1-7.779
				c-1.326-1.326-2.909-1.998-4.705-1.998c-0.938,0-1.947,0.185-3.083,0.565c-0.76,0.255-1.334,0.885-1.518,1.665
				s0.05,1.6,0.616,2.167l2.554,2.554l-0.054,0.331l-0.291,0.043l-2.568-2.568c-0.439-0.439-1.03-0.678-1.637-0.678
				c-0.176,0-0.354,0.02-0.53,0.061c-0.78,0.184-1.41,0.758-1.665,1.518c-0.395,1.177-1.596,4.759,1.433,7.788
				C64.343,36.819,66.374,37.66,68.534,37.66z M70.088,31.171L70.604,28l-3.392-3.392c0.818-0.274,1.6-0.446,2.347-0.446
				c1.094,0,2.115,0.368,3.068,1.32c1.865,1.865,2.184,4.687,0.966,6.884c0.237,0.085,0.46,0.221,0.651,0.412l6.571,6.571
				c0.689,0.689,0.689,1.806,0,2.495c-0.344,0.345-0.796,0.517-1.248,0.517c-0.451,0-0.903-0.172-1.248-0.517l-6.571-6.571
				c-0.19-0.19-0.326-0.414-0.411-0.651c-0.87,0.482-1.837,0.723-2.804,0.723c-1.477,0-2.953-0.563-4.08-1.689
				c-1.604-1.604-1.55-3.401-0.875-5.415l3.392,3.392L70.088,31.171z"/>
		</g>
	</g>
	<g id="_x30_4">
	</g>
</g>
</svg>
