<?xml version="1.0" encoding="utf-8"?>
<!-- Generator: Adobe Illustrator 16.0.3, SVG Export Plug-In . SVG Version: 6.00 Build 0)  -->
<!DOCTYPE svg PUBLIC "-//W3C//DTD SVG 1.1//EN" "http://www.w3.org/Graphics/SVG/1.1/DTD/svg11.dtd">
<svg version="1.1" xmlns="http://www.w3.org/2000/svg" xmlns:xlink="http://www.w3.org/1999/xlink" x="0px" y="0px" width="100px"
	 height="100px" viewBox="0 0 100 100" enable-background="new 0 0 100 100" xml:space="preserve">
<g id="Vrstva_1" display="none">
</g>
<g id="Vrstva_2">
	<g id="_x30_2">
		<g>
			<path fill="#FFFFFF" d="M24.2,46.546c2.989-0.002,5.48-2.691,5.796-6.255c0.165-1.839,0.246-2.757,0.409-4.598
				c0.162-1.826-0.461-3.655-1.71-5.021c-1.184-1.293-2.78-2.006-4.494-2.006c-0.275,0-0.547,0.02-0.815,0.056
				c-0.7,0.658-1.516,1.956-1.571,4.456c-0.103,4.655,0.145,9.656,0.631,11.051c0.373,1.07,0.887,1.818,1.294,2.291
				c0.151,0.014,0.303,0.026,0.457,0.026"/>
			<path fill="#BCD4F0" d="M21.814,33.178c0.055-2.5,0.872-3.798,1.571-4.456c-1.4,0.189-2.685,0.864-3.679,1.949
				c-1.25,1.365-1.874,3.196-1.713,5.021c0.107,1.191,0.178,1.998,0.26,2.917l0.149,1.681c0.301,3.382,2.558,5.972,5.336,6.23
				c-0.407-0.473-0.921-1.221-1.294-2.291C21.959,42.834,21.711,37.833,21.814,33.178z"/>
			<path fill="#BCD4F0" d="M31.301,50.721c-0.192-0.065-0.372-0.12-0.534-0.166c-4.074-0.426-6.535-0.435-6.563-0.425
				c-0.041,0-2.468-0.021-7.114,0.482c-6.424,0.697-9.82,4.051-9.82,9.701v18.174h2.83c0-2.804,0-9.482,0-11.491
				c0-3.195,1.438-4.66,2.683-4.839c0.129-0.12,0.301-0.195,0.491-0.195c0.4,0,0.724,0.324,0.724,0.724v15.801h14.837V58.672
				C28.833,55.511,29.688,52.832,31.301,50.721z"/>
			<path fill="#FFFFFF" d="M31.376,50.621c-0.023-0.003-0.045-0.006-0.068-0.009c-0.186-0.02-0.363-0.039-0.542-0.057
				c0.163,0.046,0.342,0.101,0.534,0.166C31.326,50.688,31.351,50.654,31.376,50.621z"/>
			<path fill="#FFFFFF" d="M12.781,62.158c-1.245,0.179-2.683,1.644-2.683,4.839c0,2.009,0,8.687,0,11.491h2.45V62.687
				C12.548,62.478,12.639,62.29,12.781,62.158z"/>
			<path fill="#3A5DAE" d="M13.272,61.963c-0.19,0-0.361,0.075-0.491,0.195c-0.142,0.132-0.233,0.319-0.233,0.529v15.801h1.447
				V62.687C13.996,62.287,13.672,61.963,13.272,61.963z"/>
			<path fill="#FFFFFF" d="M75.801,46.546c2.988-0.002,5.48-2.691,5.795-6.255c0.165-1.839,0.247-2.757,0.409-4.598
				c0.163-1.826-0.461-3.655-1.709-5.021c-1.184-1.293-2.78-2.006-4.494-2.006c-0.276,0-0.547,0.02-0.815,0.056
				c-0.7,0.658-1.517,1.956-1.572,4.456c-0.103,4.655,0.146,9.656,0.631,11.051c0.372,1.07,0.886,1.818,1.294,2.291
				c0.151,0.014,0.303,0.026,0.457,0.026"/>
			<path fill="#BCD4F0" d="M73.415,33.178c0.055-2.5,0.872-3.798,1.572-4.456c-1.4,0.189-2.685,0.864-3.679,1.949
				c-1.25,1.365-1.875,3.196-1.713,5.021c0.112,1.251,0.185,2.078,0.272,3.057l0.137,1.54c0.301,3.382,2.558,5.972,5.336,6.23
				c-0.408-0.473-0.922-1.221-1.294-2.291C73.561,42.834,73.312,37.833,73.415,33.178z"/>
			<path fill="#BCD4F0" d="M82.368,50.555c-4.083-0.426-6.534-0.423-6.563-0.425c-0.039,0-2.466-0.021-7.114,0.482
				c-0.09,0.01-0.177,0.022-0.266,0.033c1.765,2.17,2.744,4.911,2.744,8.026v19.816h12.488c0-2.804,0-9.482,0-11.491
				c0-3.085,1.34-4.553,2.552-4.813c0.132-0.136,0.315-0.221,0.52-0.221c0.4,0,0.724,0.324,0.724,0.724v15.801h2.439
				c0-3.184,0-12.676,0-17.806C89.891,53.442,84.594,51.185,82.368,50.555z"/>
			<path fill="#FFFFFF" d="M82.909,50.612c-0.185-0.02-0.362-0.039-0.542-0.057c2.227,0.629,7.523,2.887,7.523,10.127
				c0,5.129,0,14.622,0,17.806h2.84V60.314C92.731,55.076,88.875,51.269,82.909,50.612z"/>
			<path fill="#FFFFFF" d="M86.208,62.185c-1.212,0.259-2.552,1.728-2.552,4.813c0,2.009,0,8.687,0,11.491h2.348V62.687
				C86.004,62.492,86.083,62.315,86.208,62.185z"/>
			<path fill="#3A5DAE" d="M86.728,61.963c-0.204,0-0.388,0.085-0.52,0.221c-0.125,0.13-0.204,0.307-0.204,0.502v15.801h1.447
				V62.687C87.452,62.287,87.128,61.963,86.728,61.963z"/>
			<path fill="#3A5DAE" d="M83.162,48.312c-1.498-0.165-2.791-0.274-3.861-0.348c2.5-1.355,4.306-4.122,4.602-7.467
				c0.165-1.839,0.247-2.758,0.409-4.599c0.22-2.47-0.621-4.944-2.308-6.788c-1.627-1.779-3.83-2.759-6.201-2.759
				s-4.574,0.979-6.202,2.757c-1.688,1.843-2.53,4.317-2.312,6.79c0.112,1.252,0.185,2.078,0.272,3.057l0.137,1.541
				c0.298,3.346,2.102,6.113,4.6,7.468c-1.051,0.073-2.336,0.184-3.857,0.348c-0.723,0.078-1.415,0.19-2.078,0.333
				c-2.154-1.668-4.952-2.767-8.232-3.127c-1.867-0.205-3.453-0.334-4.714-0.414c2.936-1.393,5.084-4.532,5.425-8.365
				c0.182-2.035,0.272-3.051,0.452-5.088c0.24-2.698-0.679-5.4-2.521-7.414c-1.777-1.943-4.181-3.012-6.77-3.012
				c-2.588,0-4.993,1.069-6.77,3.011c-1.844,2.014-2.764,4.716-2.525,7.417c0.117,1.309,0.196,2.196,0.285,3.203l0.167,1.884
				c0.341,3.833,2.488,6.971,5.419,8.364c-1.237,0.08-2.802,0.208-4.707,0.415c-3.474,0.377-6.323,1.441-8.465,3.097
				c-0.594-0.129-1.209-0.231-1.844-0.301c-1.499-0.165-2.792-0.274-3.863-0.348c2.501-1.354,4.308-4.122,4.604-7.468
				c0.165-1.839,0.246-2.758,0.409-4.599c0.22-2.47-0.622-4.944-2.308-6.788c-1.627-1.779-3.83-2.759-6.202-2.759
				c-2.371,0-4.573,0.979-6.202,2.757c-1.688,1.843-2.53,4.318-2.312,6.79c0.107,1.192,0.178,1.997,0.26,2.916l0.149,1.681
				c0.297,3.346,2.102,6.113,4.599,7.467c-1.051,0.074-2.335,0.184-3.856,0.349C9.286,49.13,4.954,53.505,4.954,60.314v18.174h1.158
				h1.157V60.314c0-5.65,3.396-9.004,9.82-9.701c4.646-0.504,7.074-0.482,7.114-0.482c0.028-0.01,2.489-0.001,6.563,0.425
				c0.179,0.019,0.356,0.037,0.542,0.057c0.023,0.002,0.045,0.006,0.068,0.009c-0.026,0.033-0.05,0.067-0.076,0.1
				c-1.613,2.11-2.468,4.79-2.468,7.951v19.816v0.289h1.158h1.157V58.672c0-6.322,3.794-10.076,10.973-10.854
				c5.151-0.559,7.839-0.534,7.883-0.534c0.025-0.004,2.39-0.003,6.368,0.378c0.479,0.046,0.98,0.097,1.506,0.155
				c6.667,0.733,10.975,4.994,10.975,10.855v20.105h1.158h1.158v-0.289V58.672c0-3.115-0.979-5.856-2.744-8.026
				c0.089-0.011,0.176-0.023,0.266-0.033c4.648-0.504,7.075-0.483,7.114-0.482c0.029,0.001,2.48-0.001,6.563,0.425
				c0.179,0.019,0.356,0.037,0.542,0.057c5.966,0.656,9.822,4.464,9.822,9.702v18.174h1.158h1.157V60.314
				C95.046,53.816,90.381,49.104,83.162,48.312z M75.797,46.546c-0.154,0-0.306-0.012-0.457-0.026
				c-2.779-0.258-5.036-2.848-5.336-6.23l-0.137-1.54c-0.087-0.979-0.16-1.806-0.272-3.057c-0.162-1.826,0.463-3.656,1.713-5.021
				c0.994-1.085,2.278-1.76,3.679-1.949c0.268-0.036,0.54-0.056,0.815-0.056c1.714,0,3.31,0.712,4.494,2.006
				c1.249,1.366,1.872,3.195,1.709,5.021c-0.162,1.84-0.244,2.759-0.409,4.598c-0.315,3.564-2.807,6.253-5.795,6.255 M49.996,43.564
				c-0.129,0-0.258-0.006-0.385-0.015c-3.193-0.221-5.803-3.163-6.146-7.018l-0.167-1.883c-0.089-1.007-0.168-1.896-0.285-3.204
				c-0.182-2.053,0.521-4.112,1.927-5.647c1.162-1.27,2.677-2.042,4.326-2.219c0.243-0.026,0.489-0.04,0.737-0.04
				c1.931,0,3.729,0.803,5.062,2.26c1.405,1.536,2.106,3.594,1.923,5.647c-0.179,2.037-0.27,3.053-0.452,5.087
				c-0.355,4.006-3.165,7.03-6.534,7.032 M24.196,46.546c-0.154,0-0.306-0.012-0.457-0.026c-2.778-0.258-5.035-2.848-5.336-6.23
				l-0.149-1.681c-0.082-0.919-0.153-1.726-0.26-2.917c-0.161-1.825,0.463-3.656,1.713-5.021c0.994-1.085,2.278-1.76,3.679-1.949
				c0.268-0.036,0.54-0.056,0.815-0.056c1.714,0,3.31,0.712,4.494,2.006c1.249,1.366,1.872,3.195,1.71,5.021
				c-0.163,1.84-0.244,2.759-0.409,4.598c-0.316,3.564-2.807,6.253-5.796,6.255"/>
			<path fill="#FFFFFF" d="M50.001,43.564c3.37-0.002,6.179-3.026,6.534-7.032c0.182-2.034,0.272-3.05,0.452-5.087
				c0.183-2.054-0.518-4.111-1.923-5.647c-1.333-1.457-3.131-2.26-5.062-2.26c-0.248,0-0.494,0.014-0.737,0.04
				c-0.805,0.673-1.838,2.109-1.904,5.075c-0.114,5.149,0.161,10.683,0.698,12.226c0.45,1.291,1.086,2.16,1.552,2.671
				c0.127,0.009,0.256,0.015,0.385,0.015"/>
			<path fill="#BCD4F0" d="M47.361,28.652c0.065-2.965,1.099-4.402,1.904-5.075c-1.648,0.177-3.164,0.95-4.326,2.219
				c-1.406,1.536-2.108,3.594-1.927,5.647c0.117,1.309,0.196,2.197,0.285,3.204l0.167,1.883c0.343,3.855,2.953,6.797,6.146,7.018
				c-0.465-0.511-1.102-1.381-1.552-2.671C47.522,39.335,47.248,33.802,47.361,28.652z"/>
			<path fill="#BCD4F0" d="M65.588,59.08c0-9.322-7.935-11.179-9.216-11.418c-3.978-0.381-6.343-0.383-6.368-0.378
				c-0.044,0-2.732-0.025-7.883,0.534c-7.179,0.779-10.973,4.532-10.973,10.854v20.105h3.253c0-3.102,0-10.49,0-12.712
				c0-3.65,1.695-5.255,3.101-5.364c0.117-0.08,0.257-0.127,0.41-0.127c0.399,0,0.724,0.324,0.724,0.723v17.48h20.056
				c0-3.102,0-10.49,0-12.712c0-3.543,1.598-5.164,2.978-5.355c0.119-0.085,0.263-0.137,0.42-0.137c0.4,0,0.724,0.324,0.724,0.723
				v17.48h2.775C65.588,75.256,65.588,64.754,65.588,59.08z"/>
			<path fill="#FFFFFF" d="M68.853,58.672c0-5.861-4.308-10.122-10.975-10.855c-0.525-0.058-1.026-0.108-1.506-0.155
				c1.281,0.239,9.216,2.096,9.216,11.418c0,5.674,0,16.176,0,19.697h3.265V58.672z"/>
			<path fill="#FFFFFF" d="M61.365,61.297c0-0.242,0.12-0.456,0.303-0.586c-1.379,0.191-2.978,1.812-2.978,5.355
				c0,2.222,0,9.61,0,12.712h2.674V61.297z"/>
			<path fill="#FFFFFF" d="M37.188,61.297c0-0.248,0.125-0.465,0.314-0.596c-1.405,0.109-3.101,1.714-3.101,5.364
				c0,2.222,0,9.61,0,12.712h2.787V61.297z"/>
			<path fill="#3A5DAE" d="M38.635,61.297c0-0.399-0.324-0.723-0.724-0.723c-0.152,0-0.293,0.047-0.41,0.127
				c-0.189,0.13-0.314,0.348-0.314,0.596v17.48h1.447V61.297z"/>
			<path fill="#3A5DAE" d="M62.813,61.297c0-0.399-0.324-0.723-0.724-0.723c-0.157,0-0.302,0.051-0.42,0.137
				c-0.183,0.131-0.303,0.344-0.303,0.586v17.48h1.447V61.297z"/>
		</g>
	</g>
	<g id="_x30_1">
	</g>
	<g id="_x30_4">
	</g>
</g>
</svg>
