<?xml version="1.0" encoding="utf-8"?>
<!-- Generator: Adobe Illustrator 16.0.3, SVG Export Plug-In . SVG Version: 6.00 Build 0)  -->
<!DOCTYPE svg PUBLIC "-//W3C//DTD SVG 1.1//EN" "http://www.w3.org/Graphics/SVG/1.1/DTD/svg11.dtd">
<svg version="1.1" xmlns="http://www.w3.org/2000/svg" xmlns:xlink="http://www.w3.org/1999/xlink" x="0px" y="0px" width="100px"
	 height="100px" viewBox="0 0 100 100" enable-background="new 0 0 100 100" xml:space="preserve">
<g id="Vrstva_1" display="none">
</g>
<g id="Vrstva_2">
	<g id="_x30_2">
	</g>
	<g id="XMLID_3_">
		<g>
			<path fill="#BCD4F0" d="M26.778,24.475c0.226,0.226,0.522,0.339,0.819,0.339c0.296,0,0.592-0.113,0.818-0.339
				c0.452-0.452,0.452-1.185,0-1.637l-6.265-6.264c-0.452-0.452-1.185-0.452-1.637,0c-0.452,0.453-0.452,1.185,0,1.637
				L26.778,24.475z"/>
			<path fill="#BCD4F0" d="M73.221,67.644c-0.452-0.452-1.185-0.452-1.637,0s-0.452,1.185,0,1.637l6.266,6.264
				c0.226,0.226,0.522,0.339,0.818,0.339c0.296,0,0.592-0.113,0.819-0.339c0.452-0.452,0.452-1.185,0-1.637L73.221,67.644z"/>
			<path fill="#BCD4F0" d="M50,15.535c0.64,0,1.158-0.519,1.158-1.158v-8.86c0-0.639-0.518-1.158-1.158-1.158
				c-0.639,0-1.157,0.519-1.157,1.158v8.86C48.842,15.016,49.36,15.535,50,15.535z"/>
			<path fill="#BCD4F0" d="M72.402,24.814c0.296,0,0.592-0.113,0.818-0.339l6.266-6.265c0.452-0.452,0.452-1.185,0-1.637
				c-0.452-0.452-1.185-0.452-1.637,0l-6.266,6.265c-0.453,0.452-0.453,1.185,0,1.637C71.81,24.702,72.106,24.814,72.402,24.814z"/>
			<path fill="#BCD4F0" d="M26.778,67.645l-6.265,6.264c-0.452,0.452-0.452,1.185,0,1.637c0.226,0.226,0.522,0.339,0.819,0.339
				c0.296,0,0.592-0.113,0.818-0.339l6.265-6.265c0.452-0.452,0.452-1.185,0-1.637C27.964,67.192,27.23,67.192,26.778,67.645z"/>
			<path fill="#BCD4F0" d="M90.542,44.901h-8.86c-0.64,0-1.158,0.519-1.158,1.158s0.518,1.158,1.158,1.158h8.86
				c0.639,0,1.157-0.519,1.157-1.158S91.182,44.901,90.542,44.901z"/>
			<path fill="#BCD4F0" d="M18.317,44.901h-8.86c-0.639,0-1.158,0.519-1.158,1.158s0.519,1.158,1.158,1.158h8.86
				c0.639,0,1.158-0.519,1.158-1.158S18.957,44.901,18.317,44.901z"/>
			<g>
				<path fill="#FFFFFF" d="M43.716,42.938l-1.036-1.181c-0.113,0.826-0.208,1.691-0.281,2.599
					c-0.035,0.424-0.061,0.841-0.083,1.255l0.296-0.02C42.809,44.628,43.189,43.731,43.716,42.938z"/>
				<rect x="45.613" y="77.941" fill="#FFFFFF" width="13.528" height="3.648"/>
				<rect x="45.613" y="83.037" fill="#FFFFFF" width="13.528" height="3.688"/>
				<path fill="#FFFFFF" d="M43.716,51.253c-0.526-0.793-0.907-1.69-1.103-2.654l-0.356-0.023c0.019,1.439,0.104,2.801,0.236,4.085
					c0.04-0.059,0.083-0.116,0.137-0.17L43.716,51.253z"/>
				<rect x="45.613" y="72.846" fill="#FFFFFF" width="13.528" height="3.648"/>
				<path fill="#FFFFFF" d="M50.126,27.198c-0.487,0-0.968,0.024-1.446,0.061c-1.712,1.742-4.492,5.597-5.773,13.043l0.75-0.75
					c0.213-0.214,0.638-0.135,0.947,0.175l1.238,1.085c0.793-0.526,1.69-0.908,2.655-1.104l0.107-1.64
					c0-0.438,0.245-0.793,0.546-0.793h1.699c0.302,0,0.546,0.355,0.546,0.793l0.107,1.64c0.964,0.196,1.862,0.577,2.655,1.104
					l1.237-1.085c0.31-0.31,0.734-0.389,0.948-0.175l1.201,1.201c0.214,0.213,0.136,0.637-0.174,0.948l-1.086,1.237
					c0.526,0.793,0.907,1.69,1.103,2.654l1.639,0.107c0.438,0,0.793,0.245,0.793,0.547v1.698c0,0.303-0.355,0.548-0.793,0.548
					l-1.639,0.107c-0.196,0.964-0.577,1.861-1.103,2.653l1.086,1.238c0.31,0.311,0.388,0.734,0.174,0.948l-1.201,1.201
					c-0.213,0.214-0.638,0.135-0.948-0.175l-1.237-1.085c-0.793,0.526-1.69,0.908-2.655,1.104l-0.107,1.64
					c0,0.438-0.245,0.793-0.546,0.793H49.15c-0.302,0-0.546-0.356-0.546-0.793l-0.107-1.64c-0.964-0.196-1.862-0.577-2.655-1.104
					l-1.238,1.085c-0.309,0.31-0.733,0.389-0.947,0.175l-1.06-1.06c0.691,5.611,2.201,9.664,2.496,12.181
					c0.27,2.303,0.422,4.3,0.5,5.494h0.02v0.145h13.528v-0.145c0-0.062,0.005-0.122,0.014-0.181
					c0.139-5.149,6.093-12.817,6.154-12.895c2.635-3.366,4.027-7.436,4.027-11.77C69.336,35.816,60.719,27.198,50.126,27.198z"/>
				<path fill="#FFFFFF" d="M50.121,93.325c2.531,0,4.629-1.861,5.015-4.285h-10.03C45.491,91.464,47.589,93.325,50.121,93.325z
					 M48.177,89.278c0,0-0.055,1.216,0.705,2.052c0.76,0.836,2.014,1.71,2.014,1.71s-2.622,0.266-4.104-1.254
					s-1.331-2.508-1.331-2.508H48.177z"/>
				<rect x="41.1" y="83.037" fill="#BCD4F0" width="4.513" height="3.688"/>
				<rect x="41.1" y="72.846" fill="#BCD4F0" width="4.513" height="3.648"/>
				<path fill="#BCD4F0" d="M45.593,71.254c-0.078-1.194-0.23-3.19-0.5-5.494c-0.294-2.517-1.805-6.57-2.496-12.181l-0.141-0.141
					c-0.177-0.177-0.152-0.496,0.037-0.778c-0.132-1.284-0.218-2.646-0.236-4.085l-1.283-0.083c-0.438,0-0.793-0.245-0.793-0.548
					v-1.698c0-0.302,0.354-0.547,0.793-0.547l1.343-0.088c0.022-0.414,0.048-0.831,0.083-1.255c0.073-0.908,0.168-1.773,0.281-2.599
					l-0.05-0.057c-0.31-0.311-0.388-0.735-0.174-0.948l0.451-0.451C44.188,32.856,46.967,29,48.68,27.259
					c-9.918,0.743-17.763,9.044-17.763,19.15c0,4.333,1.393,8.404,4.027,11.77c0.062,0.079,6.156,7.927,6.156,13.076v0.145h4.513
					v-0.145H45.593z"/>
				<rect x="41.1" y="77.941" fill="#BCD4F0" width="4.513" height="3.648"/>
				<path fill="#3A5DAE" d="M50.126,24.883c-11.869,0-21.525,9.656-21.525,21.525c0,4.856,1.563,9.419,4.52,13.197
					c1.469,1.878,5.664,8.049,5.664,11.649v16.628c0,0.639,0.518,1.157,1.158,1.157h2.823c0.4,3.706,3.545,6.601,7.355,6.601
					c3.81,0,6.955-2.895,7.355-6.601h2.823c0.639,0,1.158-0.518,1.158-1.157V71.419c0.007-0.054,0.011-0.109,0.011-0.165
					c0-3.599,4.195-9.771,5.665-11.649c2.957-3.777,4.519-8.341,4.519-13.197C71.651,34.54,61.995,24.883,50.126,24.883z
					 M50.121,93.325c-2.531,0-4.63-1.861-5.015-4.285h10.03C54.75,91.464,52.651,93.325,50.121,93.325z M59.141,86.725H45.613H41.1
					v-3.688h4.513h13.528V86.725z M59.141,81.59H45.613H41.1v-3.648h4.513h13.528V81.59z M59.141,76.495H45.613H41.1v-3.648h4.513
					h13.528V76.495z M65.309,58.179c-0.061,0.078-6.015,7.746-6.154,12.895c-0.009,0.059-0.014,0.119-0.014,0.181v0.145H45.613H41.1
					v-0.145c0-5.148-6.094-12.997-6.156-13.076c-2.635-3.366-4.027-7.437-4.027-11.77c0-10.106,7.845-18.407,17.763-19.15
					c0.478-0.036,0.959-0.061,1.446-0.061c10.593,0,19.21,8.618,19.21,19.21C69.336,50.743,67.944,54.813,65.309,58.179z"/>
				<path fill="#BCD4F0" d="M46.792,91.787c1.482,1.52,4.104,1.254,4.104,1.254s-1.254-0.874-2.014-1.71
					c-0.76-0.836-0.705-2.052-0.705-2.052h-2.716C45.461,89.278,45.309,90.267,46.792,91.787z"/>
				<path fill="#3A5DAE" d="M42.63,41.701l0.05,0.057l1.036,1.181c-0.526,0.793-0.907,1.69-1.103,2.654l-0.296,0.02L40.973,45.7
					c-0.438,0-0.793,0.245-0.793,0.547v1.698c0,0.303,0.354,0.548,0.793,0.548l1.283,0.083l0.356,0.023
					c0.196,0.964,0.577,1.861,1.103,2.654L42.63,52.49c-0.054,0.054-0.098,0.112-0.137,0.17c-0.188,0.282-0.213,0.601-0.037,0.778
					l0.141,0.141l1.06,1.06c0.213,0.214,0.638,0.135,0.947-0.175l1.238-1.085c0.793,0.526,1.69,0.908,2.655,1.104l0.107,1.64
					c0,0.438,0.245,0.793,0.546,0.793h1.699c0.302,0,0.546-0.356,0.546-0.793l0.107-1.64c0.964-0.196,1.862-0.577,2.655-1.104
					l1.237,1.085c0.31,0.31,0.734,0.389,0.948,0.175l1.201-1.201c0.214-0.214,0.136-0.637-0.174-0.948l-1.086-1.238
					c0.526-0.792,0.907-1.689,1.103-2.653l1.639-0.107c0.438,0,0.793-0.245,0.793-0.548v-1.698c0-0.302-0.355-0.547-0.793-0.547
					l-1.639-0.107c-0.196-0.964-0.577-1.861-1.103-2.654l1.086-1.237c0.31-0.311,0.388-0.735,0.174-0.948l-1.201-1.201
					c-0.213-0.214-0.638-0.135-0.948,0.175l-1.237,1.085c-0.793-0.526-1.69-0.908-2.655-1.104l-0.107-1.64
					c0-0.438-0.245-0.793-0.546-0.793H49.15c-0.302,0-0.546,0.355-0.546,0.793l-0.107,1.64c-0.964,0.196-1.862,0.577-2.655,1.104
					l-1.238-1.085c-0.309-0.31-0.733-0.389-0.947-0.175l-0.75,0.75l-0.451,0.451C42.242,40.966,42.32,41.39,42.63,41.701z
					 M50,42.367c2.607,0,4.729,2.122,4.729,4.729c0,2.608-2.121,4.728-4.729,4.728c-2.607,0-4.728-2.12-4.728-4.728
					C45.271,44.488,47.393,42.367,50,42.367z"/>
				<path fill="#FFFFFF" d="M50,51.823c2.607,0,4.729-2.12,4.729-4.728c0-2.607-2.121-4.729-4.729-4.729
					c-2.607,0-4.728,2.122-4.728,4.729C45.271,49.703,47.393,51.823,50,51.823z"/>
			</g>
		</g>
	</g>
	<g id="_x30_1">
	</g>
	<g id="_x30_4">
	</g>
</g>
</svg>
